# MagicaVoxel @ Ephtracy

# group
g Big plant 1

# material
mtllib Big plant 1.mtl
usemtl palette

# normals
vn -1 0 0
vn 1 0 0
vn 0 0 1
vn 0 0 -1
vn 0 -1 0
vn 0 1 0

# texcoords
vt 0.310547 0.5
vt 0.716797 0.5
vt 0.755859 0.5
vt 0.763672 0.5

# verts
v -2 4 -0
v -2 4 -1
v -2 5 -0
v -2 5 -1
v -1 3 -0
v -1 3 -1
v -1 4 1
v -1 4 -0
v -1 4 -1
v -1 4 -2
v -1 5 1
v -1 5 -0
v -1 5 -1
v -1 5 -2
v -1 6 -0
v -1 6 -1
v -1 6 -2
v 0 2 -0
v 0 2 -1
v 0 3 1
v 0 3 -0
v 0 3 -1
v 0 3 -2
v 0 4 1
v 0 4 -0
v 0 4 -1
v 0 4 -2
v 0 5 1
v 0 5 -0
v 0 5 -2
v 0 5 -3
v 0 6 1
v 0 6 -0
v 0 6 -2
v 0 6 -3
v 1 3 2
v 1 3 1
v 1 4 3
v 1 4 2
v 1 4 1
v 1 4 -2
v 1 4 -3
v 1 5 3
v 1 5 2
v 1 5 1
v 1 5 -2
v 1 5 -3
v 1 5 -4
v 1 6 2
v 1 6 1
v 1 6 -0
v 1 6 -1
v 1 6 -3
v 1 6 -4
v 1 7 -0
v 1 7 -1
v 2 0 -0
v 2 0 -1
v 2 2 2
v 2 2 -0
v 2 2 -1
v 2 2 -2
v 2 3 3
v 2 3 2
v 2 3 -0
v 2 3 -1
v 2 3 -2
v 2 3 -3
v 2 4 4
v 2 4 3
v 2 4 2
v 2 4 1
v 2 4 -0
v 2 4 -2
v 2 4 -3
v 2 4 -4
v 2 5 5
v 2 5 4
v 2 5 3
v 2 5 2
v 2 5 1
v 2 5 -0
v 2 5 -3
v 2 5 -4
v 2 6 5
v 2 6 4
v 2 6 2
v 2 6 1
v 2 6 -0
v 2 6 -1
v 2 6 -2
v 2 7 1
v 2 7 -0
v 2 7 -1
v 2 7 -2
v 1 4 1
v 1 4 -0
v 1 5 1
v 1 5 -0
v 3 0 -0
v 3 0 -1
v 3 2 2
v 3 2 -0
v 3 2 -1
v 3 2 -2
v 3 3 3
v 3 3 2
v 3 3 1
v 3 3 -0
v 3 3 -1
v 3 3 -2
v 3 3 -3
v 3 4 4
v 3 4 3
v 3 4 2
v 3 4 -2
v 3 4 -3
v 3 4 -4
v 3 5 5
v 3 5 4
v 3 5 3
v 3 5 -3
v 3 5 -4
v 3 6 5
v 3 6 4
v 3 6 1
v 3 6 -0
v 3 6 -1
v 3 6 -2
v 3 6 -3
v 3 6 -4
v 3 7 1
v 3 7 -0
v 3 7 -1
v 3 7 -2
v 4 3 2
v 4 3 1
v 4 4 3
v 4 4 2
v 4 4 1
v 4 4 -2
v 4 4 -3
v 4 5 4
v 4 5 3
v 4 5 1
v 4 5 -0
v 4 5 -2
v 4 5 -3
v 4 6 4
v 4 6 1
v 4 6 -0
v 4 6 -1
v 4 7 -0
v 4 7 -1
v 5 2 -0
v 5 2 -1
v 5 3 1
v 5 3 -0
v 5 3 -1
v 5 3 -2
v 5 4 1
v 5 4 -0
v 5 4 -1
v 5 4 -2
v 5 5 -2
v 5 5 -3
v 5 6 -2
v 5 6 -3
v 6 3 -0
v 6 3 -1
v 6 4 1
v 6 4 -0
v 6 4 -1
v 6 4 -2
v 6 5 1
v 6 5 -0
v 6 5 -1
v 6 5 -2
v 7 4 -0
v 7 4 -1
v 7 5 -0
v 7 5 -1
v 7 5 -2
v 7 6 -0
v 7 6 -1
v 7 6 -2
v 2 5 5
v 2 6 5
v 3 5 5
v 3 6 5
v 2 4 4
v 2 5 4
v 3 4 4
v 3 5 4
v 3 6 4
v 4 5 4
v 4 6 4
v 1 4 3
v 1 5 3
v 2 3 3
v 2 4 3
v 2 5 3
v 3 3 3
v 3 4 3
v 3 5 3
v 4 4 3
v 4 5 3
v 1 3 2
v 1 4 2
v 1 5 2
v 1 6 2
v 2 2 2
v 2 3 2
v 2 4 2
v 2 5 2
v 2 6 2
v 3 2 2
v 3 3 2
v 3 4 2
v 4 3 2
v 4 4 2
v -1 4 1
v -1 5 1
v 0 3 1
v 0 4 1
v 0 5 1
v 0 6 1
v 1 3 1
v 1 4 1
v 1 5 1
v 1 6 1
v 2 6 1
v 2 7 1
v 3 6 1
v 3 7 1
v 4 3 1
v 4 4 1
v 4 5 1
v 5 3 1
v 5 4 1
v 6 4 1
v 6 5 1
v -2 4 -0
v -2 5 -0
v -1 3 -0
v -1 4 -0
v -1 5 -0
v -1 6 -0
v 0 2 -0
v 0 3 -0
v 0 4 -0
v 0 5 -0
v 0 6 -0
v 1 3 -0
v 1 4 -0
v 1 5 -0
v 1 6 -0
v 1 7 -0
v 2 0 -0
v 2 2 -0
v 2 3 -0
v 2 4 -0
v 2 5 -0
v 2 6 -0
v 2 7 -0
v 3 0 -0
v 3 2 -0
v 3 3 -0
v 3 6 -0
v 3 7 -0
v 4 5 -0
v 4 6 -0
v 4 7 -0
v 5 2 -0
v 5 3 -0
v 5 4 -0
v 5 5 -0
v 5 6 -0
v 6 3 -0
v 6 4 -0
v 6 5 -0
v 7 4 -0
v 7 5 -0
v 7 6 -0
v 1 4 1
v 1 5 1
v 2 4 1
v 2 5 1
v -2 4 -1
v -2 5 -1
v -1 3 -1
v -1 4 -1
v -1 5 -1
v 0 2 -1
v 0 3 -1
v 0 4 -1
v 1 3 -1
v 1 6 -1
v 1 7 -1
v 2 0 -1
v 2 2 -1
v 2 3 -1
v 2 6 -1
v 2 7 -1
v 3 0 -1
v 3 2 -1
v 3 3 -1
v 3 6 -1
v 3 7 -1
v 4 3 -1
v 4 6 -1
v 4 7 -1
v 5 2 -1
v 5 3 -1
v 5 4 -1
v 6 3 -1
v 6 4 -1
v 6 5 -1
v 7 4 -1
v 7 5 -1
v -1 4 -2
v -1 5 -2
v -1 6 -2
v 0 3 -2
v 0 4 -2
v 0 5 -2
v 0 6 -2
v 1 3 -2
v 1 4 -2
v 1 5 -2
v 2 2 -2
v 2 3 -2
v 2 4 -2
v 2 6 -2
v 2 7 -2
v 3 2 -2
v 3 3 -2
v 3 4 -2
v 3 6 -2
v 3 7 -2
v 4 3 -2
v 4 4 -2
v 4 5 -2
v 5 3 -2
v 5 4 -2
v 5 5 -2
v 5 6 -2
v 6 4 -2
v 6 5 -2
v 7 5 -2
v 7 6 -2
v 0 5 -3
v 0 6 -3
v 1 4 -3
v 1 5 -3
v 1 6 -3
v 2 3 -3
v 2 4 -3
v 2 5 -3
v 3 3 -3
v 3 4 -3
v 3 5 -3
v 3 6 -3
v 4 4 -3
v 4 5 -3
v 4 6 -3
v 5 5 -3
v 5 6 -3
v 1 5 -4
v 1 6 -4
v 2 4 -4
v 2 5 -4
v 2 6 -4
v 3 4 -4
v 3 5 -4
v 3 6 -4
v 2 0 -0
v 3 0 -0
v 2 0 -1
v 3 0 -1
v 2 2 2
v 3 2 2
v 0 2 -0
v 2 2 -0
v 3 2 -0
v 5 2 -0
v 0 2 -1
v 2 2 -1
v 3 2 -1
v 5 2 -1
v 2 2 -2
v 3 2 -2
v 2 3 3
v 3 3 3
v 1 3 2
v 2 3 2
v 3 3 2
v 4 3 2
v 0 3 1
v 1 3 1
v 3 3 1
v 4 3 1
v 5 3 1
v -1 3 -0
v 0 3 -0
v 1 3 -0
v 2 3 -0
v 3 3 -0
v 5 3 -0
v 6 3 -0
v -1 3 -1
v 0 3 -1
v 1 3 -1
v 2 3 -1
v 3 3 -1
v 4 3 -1
v 5 3 -1
v 6 3 -1
v 0 3 -2
v 1 3 -2
v 2 3 -2
v 3 3 -2
v 4 3 -2
v 5 3 -2
v 2 3 -3
v 3 3 -3
v 2 4 4
v 3 4 4
v 1 4 3
v 2 4 3
v 3 4 3
v 4 4 3
v 1 4 2
v 2 4 2
v 3 4 2
v 4 4 2
v -1 4 1
v 0 4 1
v 5 4 1
v 6 4 1
v -2 4 -0
v -1 4 -0
v 0 4 -0
v 5 4 -0
v 6 4 -0
v 7 4 -0
v -2 4 -1
v -1 4 -1
v 0 4 -1
v 5 4 -1
v 6 4 -1
v 7 4 -1
v -1 4 -2
v 0 4 -2
v 1 4 -2
v 2 4 -2
v 3 4 -2
v 4 4 -2
v 5 4 -2
v 6 4 -2
v 1 4 -3
v 2 4 -3
v 3 4 -3
v 4 4 -3
v 2 4 -4
v 3 4 -4
v 2 5 5
v 3 5 5
v 2 5 4
v 3 5 4
v 4 5 4
v 3 5 3
v 4 5 3
v 1 5 1
v 2 5 1
v 1 5 -0
v 2 5 -0
v 6 5 -1
v 7 5 -1
v 0 5 -2
v 1 5 -2
v 4 5 -2
v 5 5 -2
v 6 5 -2
v 7 5 -2
v 0 5 -3
v 1 5 -3
v 2 5 -3
v 4 5 -3
v 5 5 -3
v 1 5 -4
v 2 5 -4
v 1 4 1
v 2 4 1
v 1 4 -0
v 2 4 -0
v 1 5 3
v 2 5 3
v 1 5 2
v 2 5 2
v -1 5 1
v 0 5 1
v 4 5 1
v 6 5 1
v -2 5 -0
v -1 5 -0
v 0 5 -0
v 4 5 -0
v 5 5 -0
v 6 5 -0
v -2 5 -1
v -1 5 -1
v 2 6 5
v 3 6 5
v 2 6 4
v 3 6 4
v 4 6 4
v 1 6 2
v 2 6 2
v 3 6 2
v 0 6 1
v 1 6 1
v 2 6 1
v 3 6 1
v 4 6 1
v -1 6 -0
v 0 6 -0
v 1 6 -0
v 2 6 -0
v 3 6 -0
v 4 6 -0
v 5 6 -0
v 7 6 -0
v -1 6 -1
v 0 6 -1
v 1 6 -1
v 2 6 -1
v 3 6 -1
v 4 6 -1
v 5 6 -1
v 7 6 -1
v -1 6 -2
v 0 6 -2
v 2 6 -2
v 3 6 -2
v 5 6 -2
v 7 6 -2
v 0 6 -3
v 1 6 -3
v 2 6 -3
v 3 6 -3
v 4 6 -3
v 5 6 -3
v 1 6 -4
v 2 6 -4
v 3 6 -4
v 2 7 1
v 3 7 1
v 1 7 -0
v 2 7 -0
v 3 7 -0
v 4 7 -0
v 1 7 -1
v 2 7 -1
v 3 7 -1
v 4 7 -1
v 2 7 -2
v 3 7 -2

# faces
f 3/2/1 2/2/1 1/2/1
f 4/2/1 2/2/1 3/2/1
f 8/3/1 6/3/1 5/3/1
f 9/3/1 6/3/1 8/3/1
f 11/3/1 8/3/1 7/3/1
f 12/3/1 8/3/1 11/3/1
f 13/2/1 10/2/1 9/2/1
f 14/2/1 10/2/1 13/2/1
f 15/1/1 13/1/1 12/1/1
f 16/3/1 14/3/1 13/3/1
f 16/1/1 13/1/1 15/1/1
f 17/3/1 14/3/1 16/3/1
f 21/2/1 19/2/1 18/2/1
f 22/2/1 19/2/1 21/2/1
f 24/2/1 21/2/1 20/2/1
f 25/2/1 21/2/1 24/2/1
f 26/3/1 23/3/1 22/3/1
f 27/3/1 23/3/1 26/3/1
f 32/2/1 29/2/1 28/2/1
f 33/2/1 29/2/1 32/2/1
f 34/3/1 31/3/1 30/3/1
f 35/3/1 31/3/1 34/3/1
f 39/3/1 37/3/1 36/3/1
f 40/3/1 37/3/1 39/3/1
f 43/3/1 39/3/1 38/3/1
f 43/3/1 40/3/1 39/3/1
f 44/3/1 40/3/1 43/3/1
f 45/3/1 40/3/1 44/3/1
f 46/3/1 42/3/1 41/3/1
f 47/3/1 42/3/1 46/3/1
f 49/2/1 45/2/1 44/2/1
f 50/2/1 45/2/1 49/2/1
f 53/2/1 48/2/1 47/2/1
f 54/2/1 48/2/1 53/2/1
f 55/2/1 52/2/1 51/2/1
f 56/2/1 52/2/1 55/2/1
f 60/1/1 58/1/1 57/1/1
f 61/1/1 58/1/1 60/1/1
f 64/2/1 60/2/1 59/2/1
f 65/2/1 60/2/1 64/2/1
f 66/2/1 62/2/1 61/2/1
f 67/2/1 62/2/1 66/2/1
f 70/2/1 64/2/1 63/2/1
f 71/2/1 64/2/1 70/2/1
f 74/3/1 68/3/1 67/3/1
f 75/3/1 68/3/1 74/3/1
f 78/2/1 70/2/1 69/2/1
f 79/2/1 70/2/1 78/2/1
f 81/2/1 73/2/1 72/2/1
f 82/2/1 73/2/1 81/2/1
f 83/2/1 76/2/1 75/2/1
f 84/2/1 76/2/1 83/2/1
f 85/2/1 78/2/1 77/2/1
f 86/1/1 80/1/1 79/1/1
f 86/2/1 78/2/1 85/2/1
f 86/1/1 79/1/1 78/1/1
f 87/1/1 80/1/1 86/1/1
f 92/2/1 89/2/1 88/2/1
f 93/2/1 89/2/1 92/2/1
f 94/3/1 91/3/1 90/3/1
f 95/3/1 91/3/1 94/3/1
f 96/3/2 97/3/2 98/3/2
f 98/3/2 97/3/2 99/3/2
f 100/1/2 101/1/2 103/1/2
f 103/1/2 101/1/2 104/1/2
f 102/2/2 103/2/2 107/2/2
f 107/2/2 103/2/2 108/2/2
f 108/2/2 103/2/2 109/2/2
f 104/2/2 105/2/2 110/2/2
f 110/2/2 105/2/2 111/2/2
f 106/2/2 107/2/2 114/2/2
f 114/2/2 107/2/2 115/2/2
f 111/3/2 112/3/2 116/3/2
f 116/3/2 112/3/2 117/3/2
f 113/2/2 114/2/2 120/2/2
f 120/2/2 114/2/2 121/2/2
f 117/2/2 118/2/2 122/2/2
f 122/2/2 118/2/2 123/2/2
f 119/2/2 120/2/2 124/2/2
f 124/2/2 120/2/2 125/2/2
f 122/1/2 123/1/2 130/1/2
f 130/1/2 123/1/2 131/1/2
f 126/2/2 127/2/2 132/2/2
f 132/2/2 127/2/2 133/2/2
f 128/3/2 129/3/2 134/3/2
f 134/3/2 129/3/2 135/3/2
f 136/2/2 137/2/2 139/2/2
f 139/2/2 137/2/2 140/2/2
f 138/2/2 139/2/2 144/2/2
f 139/2/2 140/2/2 144/2/2
f 144/2/2 140/2/2 145/2/2
f 141/2/2 142/2/2 147/2/2
f 147/2/2 142/2/2 148/2/2
f 143/3/2 144/3/2 149/3/2
f 144/3/2 145/3/2 149/3/2
f 145/2/2 146/2/2 150/2/2
f 149/3/2 145/3/2 150/3/2
f 150/2/2 146/2/2 151/2/2
f 151/3/2 152/3/2 153/3/2
f 153/3/2 152/3/2 154/3/2
f 155/2/2 156/2/2 158/2/2
f 158/2/2 156/2/2 159/2/2
f 157/3/2 158/3/2 161/3/2
f 161/3/2 158/3/2 162/3/2
f 159/3/2 160/3/2 163/3/2
f 163/3/2 160/3/2 164/3/2
f 165/2/2 166/2/2 167/2/2
f 167/2/2 166/2/2 168/2/2
f 169/2/2 170/2/2 172/2/2
f 172/2/2 170/2/2 173/2/2
f 171/2/2 172/2/2 175/2/2
f 175/2/2 172/2/2 176/2/2
f 173/2/2 174/2/2 177/2/2
f 177/2/2 174/2/2 178/2/2
f 179/2/2 180/2/2 181/2/2
f 181/2/2 180/2/2 182/2/2
f 181/1/2 182/1/2 184/1/2
f 182/3/2 183/3/2 185/3/2
f 184/1/2 182/1/2 185/1/2
f 185/3/2 183/3/2 186/3/2
f 189/2/3 188/2/3 187/2/3
f 190/2/3 188/2/3 189/2/3
f 193/2/3 192/2/3 191/2/3
f 194/2/3 192/2/3 193/2/3
f 196/3/3 195/3/3 194/3/3
f 197/3/3 195/3/3 196/3/3
f 201/3/3 199/3/3 198/3/3
f 202/3/3 199/3/3 201/3/3
f 203/2/3 201/2/3 200/2/3
f 204/2/3 201/2/3 203/2/3
f 206/2/3 205/2/3 204/2/3
f 207/2/3 205/2/3 206/2/3
f 213/3/3 209/3/3 208/3/3
f 214/3/3 209/3/3 213/3/3
f 215/2/3 211/2/3 210/2/3
f 216/2/3 211/2/3 215/2/3
f 217/2/3 213/2/3 212/2/3
f 218/2/3 213/2/3 217/2/3
f 220/2/3 219/2/3 218/2/3
f 221/2/3 219/2/3 220/2/3
f 225/3/3 223/3/3 222/3/3
f 226/3/3 223/3/3 225/3/3
f 228/2/3 225/2/3 224/2/3
f 229/3/3 226/3/3 225/3/3
f 229/2/3 225/2/3 228/2/3
f 230/2/3 227/2/3 226/2/3
f 230/3/3 226/3/3 229/3/3
f 231/2/3 227/2/3 230/2/3
f 234/2/3 233/2/3 232/2/3
f 235/2/3 233/2/3 234/2/3
f 239/3/3 237/3/3 236/3/3
f 240/2/3 238/2/3 237/2/3
f 240/3/3 237/3/3 239/3/3
f 241/2/3 238/2/3 240/2/3
f 242/2/3 238/2/3 241/2/3
f 246/2/3 244/2/3 243/2/3
f 247/2/3 244/2/3 246/2/3
f 250/3/3 246/3/3 245/3/3
f 251/3/3 246/3/3 250/3/3
f 252/1/3 248/1/3 247/1/3
f 253/1/3 248/1/3 252/1/3
f 254/2/3 250/2/3 249/2/3
f 260/2/3 254/2/3 249/2/3
f 261/2/3 254/2/3 260/2/3
f 262/2/3 256/2/3 255/2/3
f 263/2/3 256/2/3 262/2/3
f 264/2/3 258/2/3 257/2/3
f 265/2/3 258/2/3 264/2/3
f 266/1/3 260/1/3 259/1/3
f 267/1/3 260/1/3 266/1/3
f 272/3/3 270/3/3 269/3/3
f 273/3/3 270/3/3 272/3/3
f 274/2/3 268/2/3 267/2/3
f 275/2/3 268/2/3 274/2/3
f 277/2/3 272/2/3 271/2/3
f 278/2/3 272/2/3 277/2/3
f 279/2/3 276/2/3 275/2/3
f 280/2/3 276/2/3 279/2/3
f 281/1/3 278/1/3 277/1/3
f 282/2/3 281/2/3 280/2/3
f 283/1/3 278/1/3 281/1/3
f 283/2/3 281/2/3 282/2/3
f 284/1/3 278/1/3 283/1/3
f 285/3/4 286/3/4 287/3/4
f 287/3/4 286/3/4 288/3/4
f 289/2/4 290/2/4 292/2/4
f 292/2/4 290/2/4 293/2/4
f 291/3/4 292/3/4 295/3/4
f 295/3/4 292/3/4 296/3/4
f 294/2/4 295/2/4 297/2/4
f 294/2/4 297/2/4 301/2/4
f 301/2/4 297/2/4 302/2/4
f 298/2/4 299/2/4 303/2/4
f 303/2/4 299/2/4 304/2/4
f 300/1/4 301/1/4 305/1/4
f 305/1/4 301/1/4 306/1/4
f 306/2/4 307/2/4 310/2/4
f 308/3/4 309/3/4 311/3/4
f 311/3/4 309/3/4 312/3/4
f 306/2/4 310/2/4 313/2/4
f 313/2/4 310/2/4 314/2/4
f 314/2/4 315/2/4 316/2/4
f 316/2/4 315/2/4 317/2/4
f 317/2/4 318/2/4 319/2/4
f 319/2/4 318/2/4 320/2/4
f 321/2/4 322/2/4 325/2/4
f 322/3/4 323/3/4 326/3/4
f 325/2/4 322/2/4 326/2/4
f 326/3/4 323/3/4 327/3/4
f 324/3/4 325/3/4 328/3/4
f 325/2/4 326/2/4 329/2/4
f 328/3/4 325/3/4 329/3/4
f 329/2/4 326/2/4 330/2/4
f 328/2/4 329/2/4 332/2/4
f 332/2/4 329/2/4 333/2/4
f 331/2/4 332/2/4 336/2/4
f 336/2/4 332/2/4 337/2/4
f 334/3/4 335/3/4 339/3/4
f 339/3/4 335/3/4 340/3/4
f 337/2/4 338/2/4 341/2/4
f 341/2/4 338/2/4 342/2/4
f 341/3/4 342/3/4 344/3/4
f 342/3/4 343/3/4 344/3/4
f 344/3/4 343/3/4 345/3/4
f 345/3/4 343/3/4 346/3/4
f 345/2/4 346/2/4 348/2/4
f 346/3/4 347/3/4 349/3/4
f 348/2/4 346/2/4 349/2/4
f 349/3/4 347/3/4 350/3/4
f 350/3/4 347/3/4 351/3/4
f 352/3/4 353/3/4 355/3/4
f 355/3/4 353/3/4 356/3/4
f 354/3/4 355/3/4 358/3/4
f 358/3/4 355/3/4 359/3/4
f 357/3/4 358/3/4 360/3/4
f 360/3/4 358/3/4 361/3/4
f 361/2/4 362/2/4 364/2/4
f 362/3/4 363/3/4 365/3/4
f 364/2/4 362/2/4 365/2/4
f 365/3/4 363/3/4 366/3/4
f 365/2/4 366/2/4 367/2/4
f 367/2/4 366/2/4 368/2/4
f 369/2/4 370/2/4 372/2/4
f 372/2/4 370/2/4 373/2/4
f 371/2/4 372/2/4 374/2/4
f 372/1/4 373/1/4 375/1/4
f 374/2/4 372/2/4 375/2/4
f 375/1/4 373/1/4 376/1/4
f 379/1/5 378/1/5 377/1/5
f 380/1/5 378/1/5 379/1/5
f 384/2/5 382/2/5 381/2/5
f 385/2/5 382/2/5 384/2/5
f 387/2/5 384/2/5 383/2/5
f 388/2/5 384/2/5 387/2/5
f 389/2/5 386/2/5 385/2/5
f 390/2/5 386/2/5 389/2/5
f 391/2/5 389/2/5 388/2/5
f 392/2/5 389/2/5 391/2/5
f 396/2/5 394/2/5 393/2/5
f 397/2/5 394/2/5 396/2/5
f 400/3/5 396/3/5 395/3/5
f 401/2/5 398/2/5 397/2/5
f 402/2/5 398/2/5 401/2/5
f 405/2/5 400/2/5 399/2/5
f 406/3/5 396/3/5 400/3/5
f 406/2/5 400/2/5 405/2/5
f 407/3/5 396/3/5 406/3/5
f 408/3/5 403/3/5 402/3/5
f 408/3/5 402/3/5 401/3/5
f 409/3/5 403/3/5 408/3/5
f 411/3/5 405/3/5 404/3/5
f 412/3/5 405/3/5 411/3/5
f 417/2/5 410/2/5 409/2/5
f 418/2/5 410/2/5 417/2/5
f 419/3/5 413/3/5 412/3/5
f 420/2/5 414/2/5 413/2/5
f 420/3/5 413/3/5 419/3/5
f 421/2/5 414/2/5 420/2/5
f 422/2/5 416/2/5 415/2/5
f 423/3/5 417/3/5 416/3/5
f 423/2/5 416/2/5 422/2/5
f 424/3/5 417/3/5 423/3/5
f 425/3/5 422/3/5 421/3/5
f 426/3/5 422/3/5 425/3/5
f 430/2/5 428/2/5 427/2/5
f 431/2/5 428/2/5 430/2/5
f 433/3/5 430/3/5 429/3/5
f 434/3/5 430/3/5 433/3/5
f 435/2/5 432/2/5 431/2/5
f 436/2/5 432/2/5 435/2/5
f 442/3/5 438/3/5 437/3/5
f 443/3/5 438/3/5 442/3/5
f 444/2/5 440/2/5 439/2/5
f 445/2/5 440/2/5 444/2/5
f 447/2/5 442/2/5 441/2/5
f 448/2/5 442/2/5 447/2/5
f 451/2/5 446/2/5 445/2/5
f 452/2/5 446/2/5 451/2/5
f 453/2/5 449/2/5 448/2/5
f 454/2/5 449/2/5 453/2/5
f 459/2/5 451/2/5 450/2/5
f 460/2/5 451/2/5 459/2/5
f 461/3/5 456/3/5 455/3/5
f 462/3/5 456/3/5 461/3/5
f 463/2/5 458/2/5 457/2/5
f 464/2/5 458/2/5 463/2/5
f 465/2/5 463/2/5 462/2/5
f 466/2/5 463/2/5 465/2/5
f 469/2/5 468/2/5 467/2/5
f 470/2/5 468/2/5 469/2/5
f 472/3/5 471/3/5 470/3/5
f 473/3/5 471/3/5 472/3/5
f 476/2/5 475/2/5 474/2/5
f 477/2/5 475/2/5 476/2/5
f 484/3/5 479/3/5 478/3/5
f 485/3/5 479/3/5 484/3/5
f 486/3/5 481/3/5 480/3/5
f 487/3/5 481/3/5 486/3/5
f 489/2/5 483/2/5 482/2/5
f 490/2/5 483/2/5 489/2/5
f 491/2/5 488/2/5 487/2/5
f 492/2/5 488/2/5 491/2/5
f 493/3/6 494/3/6 495/3/6
f 495/3/6 494/3/6 496/3/6
f 497/3/6 498/3/6 499/3/6
f 499/3/6 498/3/6 500/3/6
f 501/3/6 502/3/6 506/3/6
f 506/3/6 502/3/6 507/3/6
f 503/2/6 504/2/6 508/2/6
f 508/2/6 504/2/6 509/2/6
f 509/2/6 504/2/6 510/2/6
f 505/2/6 506/2/6 511/2/6
f 511/2/6 506/2/6 512/2/6
f 513/2/6 514/2/6 515/2/6
f 515/2/6 514/2/6 516/2/6
f 515/1/6 516/1/6 519/1/6
f 516/3/6 517/3/6 520/3/6
f 519/1/6 516/1/6 520/1/6
f 518/2/6 519/2/6 522/2/6
f 519/2/6 520/2/6 522/2/6
f 522/2/6 520/2/6 523/2/6
f 520/3/6 517/3/6 524/3/6
f 523/2/6 520/2/6 524/2/6
f 524/3/6 517/3/6 525/3/6
f 522/2/6 523/2/6 527/2/6
f 521/2/6 522/2/6 527/2/6
f 527/2/6 523/2/6 528/2/6
f 528/2/6 523/2/6 529/2/6
f 524/2/6 525/2/6 530/2/6
f 530/2/6 525/2/6 531/2/6
f 526/1/6 527/1/6 534/1/6
f 527/1/6 528/1/6 534/1/6
f 534/1/6 528/1/6 535/1/6
f 535/1/6 528/1/6 536/1/6
f 531/2/6 532/2/6 539/2/6
f 532/1/6 533/1/6 540/1/6
f 539/2/6 532/2/6 540/2/6
f 540/1/6 533/1/6 541/1/6
f 534/3/6 535/3/6 542/3/6
f 536/2/6 537/2/6 543/2/6
f 542/3/6 535/3/6 543/3/6
f 535/2/6 536/2/6 543/2/6
f 543/2/6 537/2/6 544/2/6
f 538/3/6 539/3/6 545/3/6
f 540/3/6 541/3/6 546/3/6
f 539/2/6 540/2/6 546/2/6
f 546/3/6 541/3/6 547/3/6
f 543/3/6 544/3/6 548/3/6
f 548/3/6 544/3/6 549/3/6
f 544/1/6 545/1/6 550/1/6
f 549/3/6 544/3/6 550/3/6
f 545/3/6 539/3/6 551/3/6
f 550/1/6 545/1/6 551/1/6
f 539/2/6 546/2/6 552/2/6
f 551/3/6 539/3/6 552/3/6
f 552/2/6 546/2/6 553/2/6
f 549/2/6 550/2/6 554/2/6
f 550/1/6 551/1/6 555/1/6
f 554/2/6 550/2/6 555/2/6
f 555/1/6 551/1/6 556/1/6
f 557/2/6 558/2/6 560/2/6
f 560/2/6 558/2/6 561/2/6
f 559/2/6 560/2/6 563/2/6
f 560/2/6 561/2/6 563/2/6
f 563/2/6 561/2/6 564/2/6
f 561/3/6 562/3/6 565/3/6
f 564/2/6 561/2/6 565/2/6
f 565/3/6 562/3/6 566/3/6
f 564/3/6 565/3/6 567/3/6
f 567/3/6 565/3/6 568/3/6
