# MagicaVoxel @ Ephtracy

# group
g Bush_Wide_Snow

# material
mtllib Bush_Wide_Snow.mtl
usemtl palette

# normals
vn -1 0 0
vn 1 0 0
vn 0 0 1
vn 0 0 -1
vn 0 -1 0
vn 0 1 0

# texcoords
vt 0.00195313 0.5
vt 0.572266 0.5
vt 0.591797 0.5

# verts
v -5 0 2.5
v -5 0 0.5
v -5 0 -0.5
v -5 0 -1.5
v -5 0 -2.5
v -5 1 2.5
v -5 1 0.5
v -5 1 -0.5
v -5 1 -1.5
v -5 1 -2.5
v -5 2 2.5
v -5 2 0.5
v -5 2 -0.5
v -5 2 -1.5
v -5 2 -2.5
v -5 3 2.5
v -5 3 0.5
v -5 3 -0.5
v -5 3 -1.5
v -5 3 -2.5
v -5 4 2.5
v -5 4 0.5
v -5 4 -0.5
v -5 5 2.5
v -5 5 0.5
v -5 5 -1.5
v -5 5 -2.5
v -5 6 2.5
v -5 6 -2.5
v -4 0 3.5
v -4 0 2.5
v -4 0 -2.5
v -4 0 -3.5
v -4 1 3.5
v -4 1 2.5
v -4 1 -2.5
v -4 2 3.5
v -4 2 2.5
v -4 2 -2.5
v -4 3 2.5
v -4 3 -2.5
v -4 4 3.5
v -4 4 2.5
v -4 4 -2.5
v -4 4 -3.5
v -4 5 3.5
v -4 5 2.5
v -4 5 -2.5
v -4 5 -3.5
v -4 6 3.5
v -4 6 2.5
v -4 6 -2.5
v -4 6 -3.5
v -4 7 2.5
v -4 7 -2.5
v 4 0 3.5
v 4 0 2.5
v 4 0 -2.5
v 4 0 -3.5
v 4 1 3.5
v 4 1 2.5
v 4 2 3.5
v 4 2 2.5
v 4 2 -2.5
v 4 2 -3.5
v 4 3 3.5
v 4 3 2.5
v 4 3 -2.5
v 4 3 -3.5
v 4 4 3.5
v 4 4 2.5
v 4 4 -2.5
v 4 5 3.5
v 4 5 2.5
v 4 5 -2.5
v 4 5 -3.5
v 4 6 3.5
v 4 6 2.5
v 4 6 -2.5
v 4 6 -3.5
v 4 7 2.5
v 4 7 -2.5
v 5 0 2.5
v 5 0 1.5
v 5 0 -0.5
v 5 0 -1.5
v 5 0 -2.5
v 5 1 2.5
v 5 1 1.5
v 5 1 -0.5
v 5 1 -1.5
v 5 2 2.5
v 5 2 1.5
v 5 2 0.5
v 5 2 -0.5
v 5 2 -2.5
v 5 3 1.5
v 5 3 0.5
v 5 3 -0.5
v 5 3 -1.5
v 5 4 2.5
v 5 4 1.5
v 5 4 0.5
v 5 4 -0.5
v 5 4 -1.5
v 5 4 -2.5
v 5 5 2.5
v 5 5 1.5
v 5 5 0.5
v 5 5 -0.5
v 5 5 -1.5
v 5 5 -2.5
v 5 6 2.5
v 5 6 -2.5
v -4 0 3.5
v -4 1 3.5
v -4 2 3.5
v -4 4 3.5
v -4 5 3.5
v -4 6 3.5
v -3 0 3.5
v -3 1 3.5
v -3 2 3.5
v -3 4 3.5
v -3 5 3.5
v -2 0 3.5
v -2 1 3.5
v -2 3 3.5
v -2 4 3.5
v -1 0 3.5
v -1 2 3.5
v -1 3 3.5
v -1 4 3.5
v -1 5 3.5
v 0 0 3.5
v 0 2 3.5
v 0 3 3.5
v 0 4 3.5
v 0 5 3.5
v 1 1 3.5
v 1 2 3.5
v 1 3 3.5
v 1 4 3.5
v 3 0 3.5
v 3 1 3.5
v 3 2 3.5
v 3 3 3.5
v 3 4 3.5
v 3 5 3.5
v 4 0 3.5
v 4 1 3.5
v 4 2 3.5
v 4 3 3.5
v 4 4 3.5
v 4 5 3.5
v 4 6 3.5
v -5 0 2.5
v -5 1 2.5
v -5 2 2.5
v -5 3 2.5
v -5 4 2.5
v -5 5 2.5
v -5 6 2.5
v -4 0 2.5
v -4 1 2.5
v -4 2 2.5
v -4 3 2.5
v -4 4 2.5
v -4 5 2.5
v -4 6 2.5
v -4 7 2.5
v 4 0 2.5
v 4 1 2.5
v 4 2 2.5
v 4 3 2.5
v 4 4 2.5
v 4 5 2.5
v 4 6 2.5
v 4 7 2.5
v 5 0 2.5
v 5 1 2.5
v 5 2 2.5
v 5 4 2.5
v 5 5 2.5
v 5 6 2.5
v -5 0 -2.5
v -5 1 -2.5
v -5 2 -2.5
v -5 3 -2.5
v -5 5 -2.5
v -5 6 -2.5
v -4 0 -2.5
v -4 1 -2.5
v -4 2 -2.5
v -4 3 -2.5
v -4 4 -2.5
v -4 5 -2.5
v -4 6 -2.5
v -4 7 -2.5
v 4 0 -2.5
v 4 2 -2.5
v 4 3 -2.5
v 4 4 -2.5
v 4 5 -2.5
v 4 6 -2.5
v 4 7 -2.5
v 5 0 -2.5
v 5 2 -2.5
v 5 4 -2.5
v 5 5 -2.5
v 5 6 -2.5
v -4 0 -3.5
v -4 4 -3.5
v -4 5 -3.5
v -4 6 -3.5
v -3 0 -3.5
v -3 2 -3.5
v -3 3 -3.5
v -3 4 -3.5
v -3 5 -3.5
v -2 0 -3.5
v -2 2 -3.5
v -1 1 -3.5
v -1 3 -3.5
v -1 4 -3.5
v -1 5 -3.5
v 0 0 -3.5
v 0 1 -3.5
v 0 3 -3.5
v 0 4 -3.5
v 0 5 -3.5
v 1 0 -3.5
v 1 1 -3.5
v 1 2 -3.5
v 1 3 -3.5
v 2 0 -3.5
v 2 2 -3.5
v 2 4 -3.5
v 2 5 -3.5
v 3 0 -3.5
v 3 2 -3.5
v 3 3 -3.5
v 3 5 -3.5
v 4 0 -3.5
v 4 2 -3.5
v 4 3 -3.5
v 4 5 -3.5
v 4 6 -3.5
v -4 0 3.5
v -3 0 3.5
v -2 0 3.5
v -1 0 3.5
v 0 0 3.5
v 3 0 3.5
v 4 0 3.5
v -5 0 2.5
v -4 0 2.5
v -3 0 2.5
v -2 0 2.5
v -1 0 2.5
v 0 0 2.5
v 3 0 2.5
v 4 0 2.5
v 5 0 2.5
v 4 0 1.5
v 5 0 1.5
v -5 0 0.5
v -4 0 0.5
v -5 0 -0.5
v -4 0 -0.5
v 4 0 -0.5
v 5 0 -0.5
v -5 0 -1.5
v -4 0 -1.5
v 4 0 -1.5
v 5 0 -1.5
v -5 0 -2.5
v -4 0 -2.5
v -3 0 -2.5
v -2 0 -2.5
v 0 0 -2.5
v 1 0 -2.5
v 2 0 -2.5
v 3 0 -2.5
v 4 0 -2.5
v 5 0 -2.5
v -4 0 -3.5
v -3 0 -3.5
v -2 0 -3.5
v 0 0 -3.5
v 1 0 -3.5
v 2 0 -3.5
v 3 0 -3.5
v 4 0 -3.5
v -4 6 3.5
v 4 6 3.5
v -5 6 2.5
v -4 6 2.5
v 4 6 2.5
v 5 6 2.5
v -5 6 -2.5
v -4 6 -2.5
v 4 6 -2.5
v 5 6 -2.5
v -4 6 -3.5
v 4 6 -3.5
v -4 7 2.5
v 4 7 2.5
v -4 7 -2.5
v 4 7 -2.5

# faces
f 6/2/1 2/2/1 1/2/1
f 7/3/1 3/3/1 2/3/1
f 7/2/1 2/2/1 6/2/1
f 8/2/1 4/2/1 3/2/1
f 8/3/1 3/3/1 7/3/1
f 9/3/1 5/3/1 4/3/1
f 9/2/1 4/2/1 8/2/1
f 10/3/1 5/3/1 9/3/1
f 11/3/1 7/3/1 6/3/1
f 12/2/1 8/2/1 7/2/1
f 12/3/1 7/3/1 11/3/1
f 12/2/1 9/2/1 8/2/1
f 12/2/1 10/2/1 9/2/1
f 13/2/1 10/2/1 12/2/1
f 14/2/1 10/2/1 13/2/1
f 15/2/1 10/2/1 14/2/1
f 16/2/1 12/2/1 11/2/1
f 17/3/1 13/3/1 12/3/1
f 17/2/1 12/2/1 16/2/1
f 18/2/1 14/2/1 13/2/1
f 18/3/1 13/3/1 17/3/1
f 19/3/1 15/3/1 14/3/1
f 19/2/1 14/2/1 18/2/1
f 20/3/1 15/3/1 19/3/1
f 21/3/1 17/3/1 16/3/1
f 22/2/1 18/2/1 17/2/1
f 22/3/1 17/3/1 21/3/1
f 23/3/1 19/3/1 18/3/1
f 23/2/1 18/2/1 22/2/1
f 24/2/1 22/2/1 21/2/1
f 25/3/1 23/3/1 22/3/1
f 25/2/1 22/2/1 24/2/1
f 26/3/1 19/3/1 23/3/1
f 26/3/1 23/3/1 25/3/1
f 26/2/1 20/2/1 19/2/1
f 27/2/1 20/2/1 26/2/1
f 28/1/1 25/1/1 24/1/1
f 28/1/1 26/1/1 25/1/1
f 28/1/1 27/1/1 26/1/1
f 29/1/1 27/1/1 28/1/1
f 34/2/1 31/2/1 30/2/1
f 35/2/1 31/2/1 34/2/1
f 36/2/1 33/2/1 32/2/1
f 37/3/1 35/3/1 34/3/1
f 38/3/1 35/3/1 37/3/1
f 39/2/1 33/2/1 36/2/1
f 40/2/1 38/2/1 37/2/1
f 41/2/1 33/2/1 39/2/1
f 42/2/1 40/2/1 37/2/1
f 43/2/1 40/2/1 42/2/1
f 44/2/1 33/2/1 41/2/1
f 45/2/1 33/2/1 44/2/1
f 46/3/1 43/3/1 42/3/1
f 47/3/1 43/3/1 46/3/1
f 48/3/1 45/3/1 44/3/1
f 49/3/1 45/3/1 48/3/1
f 50/1/1 47/1/1 46/1/1
f 51/1/1 47/1/1 50/1/1
f 52/1/1 49/1/1 48/1/1
f 53/1/1 49/1/1 52/1/1
f 54/1/1 52/1/1 51/1/1
f 55/1/1 52/1/1 54/1/1
f 56/3/2 57/3/2 60/3/2
f 60/3/2 57/3/2 61/3/2
f 60/2/2 61/2/2 62/2/2
f 62/2/2 61/2/2 63/2/2
f 58/2/2 59/2/2 64/2/2
f 64/2/2 59/2/2 65/2/2
f 62/3/2 63/3/2 66/3/2
f 66/3/2 63/3/2 67/3/2
f 64/3/2 65/3/2 68/3/2
f 68/3/2 65/3/2 69/3/2
f 66/2/2 67/2/2 70/2/2
f 70/2/2 67/2/2 71/2/2
f 68/2/2 69/2/2 72/2/2
f 70/3/2 71/3/2 73/3/2
f 73/3/2 71/3/2 74/3/2
f 72/2/2 69/2/2 75/2/2
f 75/2/2 69/2/2 76/2/2
f 73/1/2 74/1/2 77/1/2
f 77/1/2 74/1/2 78/1/2
f 75/1/2 76/1/2 79/1/2
f 79/1/2 76/1/2 80/1/2
f 78/1/2 79/1/2 81/1/2
f 81/1/2 79/1/2 82/1/2
f 83/2/2 84/2/2 88/2/2
f 84/3/2 85/3/2 89/3/2
f 88/2/2 84/2/2 89/2/2
f 85/2/2 86/2/2 90/2/2
f 89/3/2 85/3/2 90/3/2
f 86/3/2 87/3/2 91/3/2
f 90/2/2 86/2/2 91/2/2
f 88/3/2 89/3/2 92/3/2
f 89/2/2 90/2/2 93/2/2
f 92/3/2 89/3/2 93/3/2
f 93/2/2 90/2/2 94/2/2
f 90/3/2 91/3/2 95/3/2
f 94/2/2 90/2/2 95/2/2
f 91/3/2 87/3/2 96/3/2
f 95/3/2 91/3/2 96/3/2
f 93/2/2 94/2/2 97/2/2
f 92/2/2 93/2/2 97/2/2
f 94/3/2 95/3/2 98/3/2
f 97/2/2 94/2/2 98/2/2
f 95/2/2 96/2/2 99/2/2
f 98/3/2 95/3/2 99/3/2
f 99/2/2 96/2/2 100/2/2
f 92/2/2 97/2/2 101/2/2
f 97/3/2 98/3/2 102/3/2
f 101/2/2 97/2/2 102/2/2
f 98/3/2 99/3/2 102/3/2
f 99/3/2 100/3/2 102/3/2
f 102/3/2 100/3/2 103/3/2
f 103/3/2 100/3/2 104/3/2
f 100/2/2 96/2/2 105/2/2
f 104/3/2 100/3/2 105/3/2
f 105/2/2 96/2/2 106/2/2
f 101/3/2 102/3/2 107/3/2
f 102/2/2 103/2/2 108/2/2
f 107/3/2 102/3/2 108/3/2
f 103/3/2 104/3/2 109/3/2
f 108/2/2 103/2/2 109/2/2
f 104/2/2 105/2/2 110/2/2
f 109/3/2 104/3/2 110/3/2
f 105/3/2 106/3/2 111/3/2
f 110/2/2 105/2/2 111/2/2
f 111/3/2 106/3/2 112/3/2
f 107/1/2 108/1/2 113/1/2
f 108/1/2 109/1/2 113/1/2
f 111/1/2 112/1/2 113/1/2
f 110/1/2 111/1/2 113/1/2
f 109/1/2 110/1/2 113/1/2
f 113/1/2 112/1/2 114/1/2
f 121/2/3 116/2/3 115/2/3
f 122/3/3 117/3/3 116/3/3
f 122/2/3 116/2/3 121/2/3
f 123/2/3 118/2/3 117/2/3
f 123/3/3 117/3/3 122/3/3
f 124/3/3 119/3/3 118/3/3
f 124/2/3 118/2/3 123/2/3
f 125/1/3 120/1/3 119/1/3
f 125/3/3 119/3/3 124/3/3
f 126/3/3 122/3/3 121/3/3
f 127/2/3 123/2/3 122/2/3
f 127/3/3 122/3/3 126/3/3
f 128/3/3 124/3/3 123/3/3
f 129/2/3 125/2/3 124/2/3
f 129/3/3 124/3/3 128/3/3
f 130/2/3 127/2/3 126/2/3
f 131/2/3 123/2/3 127/2/3
f 131/2/3 127/2/3 130/2/3
f 131/3/3 128/3/3 123/3/3
f 132/2/3 129/2/3 128/2/3
f 132/3/3 128/3/3 131/3/3
f 133/2/3 125/2/3 129/2/3
f 133/2/3 129/2/3 132/2/3
f 134/1/3 120/1/3 125/1/3
f 134/2/3 125/2/3 133/2/3
f 135/3/3 131/3/3 130/3/3
f 136/2/3 133/2/3 132/2/3
f 136/3/3 131/3/3 135/3/3
f 136/2/3 132/2/3 131/2/3
f 137/2/3 133/2/3 136/2/3
f 138/3/3 134/3/3 133/3/3
f 138/2/3 133/2/3 137/2/3
f 139/1/3 120/1/3 134/1/3
f 139/3/3 134/3/3 138/3/3
f 140/2/3 136/2/3 135/2/3
f 141/3/3 137/3/3 136/3/3
f 141/2/3 136/2/3 140/2/3
f 142/2/3 138/2/3 137/2/3
f 142/3/3 137/3/3 141/3/3
f 142/2/3 139/2/3 138/2/3
f 143/2/3 139/2/3 142/2/3
f 144/2/3 140/2/3 135/2/3
f 145/3/3 141/3/3 140/3/3
f 145/2/3 140/2/3 144/2/3
f 146/2/3 142/2/3 141/2/3
f 146/3/3 141/3/3 145/3/3
f 147/3/3 143/3/3 142/3/3
f 147/2/3 142/2/3 146/2/3
f 148/2/3 139/2/3 143/2/3
f 148/3/3 143/3/3 147/3/3
f 149/1/3 120/1/3 139/1/3
f 149/2/3 139/2/3 148/2/3
f 150/3/3 145/3/3 144/3/3
f 151/2/3 146/2/3 145/2/3
f 151/3/3 145/3/3 150/3/3
f 152/3/3 147/3/3 146/3/3
f 152/2/3 146/2/3 151/2/3
f 153/2/3 148/2/3 147/2/3
f 153/3/3 147/3/3 152/3/3
f 154/3/3 149/3/3 148/3/3
f 154/2/3 148/2/3 153/2/3
f 155/1/3 120/1/3 149/1/3
f 155/3/3 149/3/3 154/3/3
f 156/1/3 120/1/3 155/1/3
f 164/2/3 158/2/3 157/2/3
f 165/3/3 159/3/3 158/3/3
f 165/2/3 158/2/3 164/2/3
f 166/2/3 160/2/3 159/2/3
f 166/3/3 159/3/3 165/3/3
f 167/3/3 161/3/3 160/3/3
f 167/2/3 160/2/3 166/2/3
f 168/2/3 162/2/3 161/2/3
f 168/3/3 161/3/3 167/3/3
f 169/1/3 163/1/3 162/1/3
f 169/2/3 162/2/3 168/2/3
f 170/1/3 163/1/3 169/1/3
f 178/1/3 171/1/3 170/1/3
f 179/1/3 171/1/3 178/1/3
f 180/2/3 173/2/3 172/2/3
f 181/3/3 174/3/3 173/3/3
f 181/2/3 173/2/3 180/2/3
f 182/2/3 175/2/3 174/2/3
f 182/3/3 174/3/3 181/3/3
f 182/2/3 176/2/3 175/2/3
f 183/3/3 177/3/3 176/3/3
f 183/2/3 176/2/3 182/2/3
f 184/1/3 178/1/3 177/1/3
f 184/3/3 177/3/3 183/3/3
f 185/1/3 178/1/3 184/1/3
f 186/3/4 187/3/4 192/3/4
f 187/2/4 188/2/4 193/2/4
f 192/3/4 187/3/4 193/3/4
f 188/3/4 189/3/4 194/3/4
f 193/2/4 188/2/4 194/2/4
f 189/2/4 190/2/4 195/2/4
f 194/3/4 189/3/4 195/3/4
f 195/2/4 190/2/4 196/2/4
f 190/1/4 191/1/4 197/1/4
f 196/2/4 190/2/4 197/2/4
f 197/1/4 191/1/4 198/1/4
f 198/1/4 199/1/4 205/1/4
f 205/1/4 199/1/4 206/1/4
f 200/3/4 201/3/4 207/3/4
f 201/2/4 202/2/4 208/2/4
f 207/3/4 201/3/4 208/3/4
f 202/2/4 203/2/4 208/2/4
f 203/3/4 204/3/4 209/3/4
f 208/2/4 203/2/4 209/2/4
f 204/1/4 205/1/4 210/1/4
f 209/3/4 204/3/4 210/3/4
f 210/1/4 205/1/4 211/1/4
f 212/2/4 213/2/4 216/2/4
f 216/2/4 213/2/4 217/2/4
f 217/2/4 213/2/4 218/2/4
f 213/3/4 214/3/4 219/3/4
f 218/2/4 213/2/4 219/2/4
f 214/1/4 215/1/4 220/1/4
f 219/3/4 214/3/4 220/3/4
f 216/3/4 217/3/4 221/3/4
f 217/2/4 218/2/4 222/2/4
f 221/3/4 217/3/4 222/3/4
f 221/2/4 222/2/4 223/2/4
f 218/3/4 219/3/4 224/3/4
f 223/2/4 222/2/4 224/2/4
f 222/2/4 218/2/4 224/2/4
f 219/2/4 220/2/4 225/2/4
f 224/3/4 219/3/4 225/3/4
f 220/1/4 215/1/4 226/1/4
f 225/2/4 220/2/4 226/2/4
f 221/2/4 223/2/4 227/2/4
f 223/3/4 224/3/4 228/3/4
f 227/2/4 223/2/4 228/2/4
f 224/2/4 225/2/4 229/2/4
f 228/3/4 224/3/4 229/3/4
f 225/3/4 226/3/4 230/3/4
f 229/2/4 225/2/4 230/2/4
f 226/1/4 215/1/4 231/1/4
f 230/3/4 226/3/4 231/3/4
f 227/3/4 228/3/4 232/3/4
f 228/2/4 229/2/4 233/2/4
f 232/3/4 228/3/4 233/3/4
f 233/2/4 229/2/4 234/2/4
f 229/3/4 230/3/4 235/3/4
f 234/2/4 229/2/4 235/2/4
f 233/2/4 234/2/4 236/2/4
f 232/2/4 233/2/4 236/2/4
f 234/3/4 235/3/4 237/3/4
f 236/2/4 234/2/4 237/2/4
f 235/3/4 230/3/4 238/3/4
f 237/3/4 235/3/4 238/3/4
f 230/2/4 231/2/4 238/2/4
f 231/1/4 215/1/4 239/1/4
f 238/2/4 231/2/4 239/2/4
f 236/3/4 237/3/4 240/3/4
f 237/3/4 238/3/4 240/3/4
f 238/3/4 239/3/4 240/3/4
f 240/3/4 239/3/4 241/3/4
f 241/3/4 239/3/4 242/3/4
f 239/1/4 215/1/4 243/1/4
f 242/3/4 239/3/4 243/3/4
f 240/2/4 241/2/4 244/2/4
f 241/3/4 242/3/4 245/3/4
f 244/2/4 241/2/4 245/2/4
f 242/2/4 243/2/4 246/2/4
f 245/3/4 242/3/4 246/3/4
f 243/1/4 215/1/4 247/1/4
f 246/2/4 243/2/4 247/2/4
f 247/1/4 215/1/4 248/1/4
f 257/2/5 250/2/5 249/2/5
f 258/3/5 251/3/5 250/3/5
f 258/2/5 250/2/5 257/2/5
f 259/2/5 252/2/5 251/2/5
f 259/3/5 251/3/5 258/3/5
f 260/3/5 253/3/5 252/3/5
f 260/2/5 252/2/5 259/2/5
f 261/2/5 254/2/5 253/2/5
f 261/3/5 253/3/5 260/3/5
f 262/3/5 255/3/5 254/3/5
f 262/2/5 254/2/5 261/2/5
f 263/3/5 255/3/5 262/3/5
f 265/2/5 261/2/5 260/2/5
f 265/2/5 264/2/5 263/2/5
f 265/2/5 263/2/5 262/2/5
f 265/2/5 262/2/5 261/2/5
f 265/2/5 257/2/5 256/2/5
f 265/2/5 260/2/5 259/2/5
f 265/2/5 259/2/5 258/2/5
f 265/2/5 258/2/5 257/2/5
f 266/2/5 264/2/5 265/2/5
f 267/2/5 265/2/5 256/2/5
f 268/2/5 265/2/5 267/2/5
f 269/3/5 268/3/5 267/3/5
f 270/2/5 265/2/5 268/2/5
f 270/3/5 268/3/5 269/3/5
f 271/3/5 266/3/5 265/3/5
f 271/2/5 265/2/5 270/2/5
f 272/3/5 266/3/5 271/3/5
f 273/2/5 270/2/5 269/2/5
f 273/2/5 271/2/5 270/2/5
f 273/2/5 272/2/5 271/2/5
f 274/2/5 272/2/5 273/2/5
f 275/2/5 272/2/5 274/2/5
f 276/2/5 272/2/5 275/2/5
f 277/3/5 274/3/5 273/3/5
f 278/2/5 275/2/5 274/2/5
f 278/3/5 274/3/5 277/3/5
f 279/2/5 275/2/5 278/2/5
f 280/2/5 275/2/5 279/2/5
f 281/2/5 275/2/5 280/2/5
f 282/2/5 275/2/5 281/2/5
f 283/2/5 275/2/5 282/2/5
f 284/2/5 275/2/5 283/2/5
f 285/3/5 276/3/5 275/3/5
f 285/2/5 275/2/5 284/2/5
f 286/3/5 276/3/5 285/3/5
f 287/2/5 279/2/5 278/2/5
f 288/3/5 280/3/5 279/3/5
f 288/2/5 279/2/5 287/2/5
f 289/2/5 281/2/5 280/2/5
f 289/3/5 280/3/5 288/3/5
f 290/3/5 282/3/5 281/3/5
f 290/2/5 281/2/5 289/2/5
f 291/2/5 283/2/5 282/2/5
f 291/3/5 282/3/5 290/3/5
f 292/3/5 284/3/5 283/3/5
f 292/2/5 283/2/5 291/2/5
f 293/2/5 285/2/5 284/2/5
f 293/3/5 284/3/5 292/3/5
f 294/2/5 285/2/5 293/2/5
f 295/1/6 296/1/6 298/1/6
f 298/1/6 296/1/6 299/1/6
f 297/1/6 298/1/6 301/1/6
f 301/1/6 298/1/6 302/1/6
f 299/1/6 300/1/6 303/1/6
f 303/1/6 300/1/6 304/1/6
f 302/1/6 303/1/6 305/1/6
f 305/1/6 303/1/6 306/1/6
f 307/1/6 308/1/6 309/1/6
f 309/1/6 308/1/6 310/1/6
