# MagicaVoxel @ Ephtracy

# group
g Flag

# material
mtllib Flag.mtl
usemtl palette

# normals
vn -1 0 0
vn 1 0 0
vn 0 0 1
vn 0 0 -1
vn 0 -1 0
vn 0 1 0

# texcoords
vt 0.00195313 0.5
vt 0.146484 0.5
vt 0.943359 0.5
vt 0.978516 0.5
vt 0.994141 0.5

# verts
v -1.5 0 4
v -1.5 0 3
v -1.5 2 4
v -1.5 2 3
v -1.5 14 -0
v -1.5 14 -3
v -1.5 15 -1
v -1.5 15 -2
v -1.5 16 -0
v -1.5 16 -1
v -1.5 16 -2
v -1.5 16 -3
v -1.5 17 -0
v -1.5 17 -1
v -1.5 17 -2
v -1.5 17 -3
v -1.5 18 -1
v -1.5 18 -2
v -1.5 19 -0
v -1.5 19 -3
v -1.5 20 4
v -1.5 20 3
v -1.5 21 4
v -1.5 21 3
v -0.5 0 5
v -0.5 0 4
v -0.5 0 3
v -0.5 0 2
v -0.5 2 5
v -0.5 2 4
v -0.5 2 3
v -0.5 2 2
v -0.5 14 2
v -0.5 14 -0
v -0.5 14 -3
v -0.5 14 -5
v -0.5 15 3
v -0.5 15 2
v -0.5 16 3
v -0.5 16 2
v -0.5 16 -0
v -0.5 16 -3
v -0.5 16 -5
v -0.5 17 3
v -0.5 17 2
v -0.5 17 -0
v -0.5 17 -3
v -0.5 17 -5
v -0.5 18 3
v -0.5 18 2
v -0.5 19 4
v -0.5 19 3
v -0.5 19 2
v -0.5 19 -0
v -0.5 19 -3
v -0.5 19 -5
v -0.5 20 5
v -0.5 20 4
v -0.5 20 3
v -0.5 20 2
v -0.5 21 5
v -0.5 21 4
v -0.5 21 3
v -0.5 21 2
v -0.5 22 4
v -0.5 22 3
v -0.5 14 -0
v -0.5 14 -3
v -0.5 15 -1
v -0.5 15 -2
v -0.5 16 -0
v -0.5 16 -1
v -0.5 16 -2
v -0.5 16 -3
v -0.5 17 -0
v -0.5 17 -1
v -0.5 17 -2
v -0.5 17 -3
v -0.5 18 -1
v -0.5 18 -2
v -0.5 19 -0
v -0.5 19 -3
v 0.5 0 5
v 0.5 0 4
v 0.5 0 3
v 0.5 0 2
v 0.5 2 5
v 0.5 2 4
v 0.5 2 3
v 0.5 2 2
v 0.5 14 2
v 0.5 14 -0
v 0.5 14 -3
v 0.5 14 -5
v 0.5 15 3
v 0.5 15 2
v 0.5 16 3
v 0.5 16 2
v 0.5 16 -0
v 0.5 16 -3
v 0.5 16 -5
v 0.5 17 3
v 0.5 17 2
v 0.5 17 -0
v 0.5 17 -3
v 0.5 17 -5
v 0.5 18 3
v 0.5 18 2
v 0.5 19 4
v 0.5 19 3
v 0.5 19 2
v 0.5 19 -0
v 0.5 19 -3
v 0.5 19 -5
v 0.5 20 5
v 0.5 20 4
v 0.5 20 3
v 0.5 20 2
v 0.5 21 5
v 0.5 21 4
v 0.5 21 3
v 0.5 21 2
v 0.5 22 4
v 0.5 22 3
v 1.5 0 4
v 1.5 0 3
v 1.5 2 4
v 1.5 2 3
v 1.5 20 4
v 1.5 20 3
v 1.5 21 4
v 1.5 21 3
v -0.5 0 5
v -0.5 2 5
v -0.5 20 5
v -0.5 21 5
v 0.5 0 5
v 0.5 2 5
v 0.5 20 5
v 0.5 21 5
v -1.5 0 4
v -1.5 2 4
v -1.5 20 4
v -1.5 21 4
v -0.5 0 4
v -0.5 2 4
v -0.5 19 4
v -0.5 20 4
v -0.5 21 4
v -0.5 22 4
v 0.5 0 4
v 0.5 2 4
v 0.5 19 4
v 0.5 20 4
v 0.5 21 4
v 0.5 22 4
v 1.5 0 4
v 1.5 2 4
v 1.5 20 4
v 1.5 21 4
v -0.5 14 2
v -0.5 15 2
v -0.5 16 2
v -0.5 17 2
v -0.5 18 2
v -0.5 19 2
v 0.5 14 2
v 0.5 15 2
v 0.5 16 2
v 0.5 17 2
v 0.5 18 2
v 0.5 19 2
v -1.5 14 -0
v -1.5 16 -0
v -1.5 17 -0
v -1.5 19 -0
v -0.5 14 -0
v -0.5 16 -0
v -0.5 17 -0
v -0.5 19 -0
v -0.5 14 -3
v -0.5 16 -3
v -0.5 17 -3
v -0.5 19 -3
v 0.5 14 -3
v 0.5 16 -3
v 0.5 17 -3
v 0.5 19 -3
v -1.5 0 3
v -1.5 2 3
v -1.5 20 3
v -1.5 21 3
v -0.5 0 3
v -0.5 2 3
v -0.5 15 3
v -0.5 16 3
v -0.5 17 3
v -0.5 18 3
v -0.5 19 3
v -0.5 20 3
v -0.5 21 3
v -0.5 22 3
v 0.5 0 3
v 0.5 2 3
v 0.5 15 3
v 0.5 16 3
v 0.5 17 3
v 0.5 18 3
v 0.5 19 3
v 0.5 20 3
v 0.5 21 3
v 0.5 22 3
v 1.5 0 3
v 1.5 2 3
v 1.5 20 3
v 1.5 21 3
v -0.5 0 2
v -0.5 2 2
v -0.5 20 2
v -0.5 21 2
v 0.5 0 2
v 0.5 2 2
v 0.5 20 2
v 0.5 21 2
v -0.5 14 -0
v -0.5 16 -0
v -0.5 17 -0
v -0.5 19 -0
v 0.5 14 -0
v 0.5 16 -0
v 0.5 17 -0
v 0.5 19 -0
v -1.5 14 -3
v -1.5 16 -3
v -1.5 17 -3
v -1.5 19 -3
v -0.5 14 -3
v -0.5 16 -3
v -0.5 17 -3
v -0.5 19 -3
v -0.5 14 -5
v -0.5 16 -5
v -0.5 17 -5
v -0.5 19 -5
v 0.5 14 -5
v 0.5 16 -5
v 0.5 17 -5
v 0.5 19 -5
v -0.5 0 5
v 0.5 0 5
v -1.5 0 4
v -0.5 0 4
v 0.5 0 4
v 1.5 0 4
v -1.5 0 3
v -0.5 0 3
v 0.5 0 3
v 1.5 0 3
v -0.5 0 2
v 0.5 0 2
v -0.5 14 2
v 0.5 14 2
v -1.5 14 -0
v -0.5 14 -0
v 0.5 14 -0
v -1.5 14 -3
v -0.5 14 -3
v 0.5 14 -3
v -0.5 14 -5
v 0.5 14 -5
v -0.5 15 3
v 0.5 15 3
v -0.5 15 2
v 0.5 15 2
v -0.5 17 3
v 0.5 17 3
v -0.5 17 2
v 0.5 17 2
v -0.5 20 5
v 0.5 20 5
v -1.5 20 4
v -0.5 20 4
v 0.5 20 4
v 1.5 20 4
v -1.5 20 3
v -0.5 20 3
v 0.5 20 3
v 1.5 20 3
v -0.5 20 2
v 0.5 20 2
v -0.5 2 5
v 0.5 2 5
v -1.5 2 4
v -0.5 2 4
v 0.5 2 4
v 1.5 2 4
v -1.5 2 3
v -0.5 2 3
v 0.5 2 3
v 1.5 2 3
v -0.5 2 2
v 0.5 2 2
v -0.5 16 3
v 0.5 16 3
v -0.5 16 2
v 0.5 16 2
v -0.5 18 3
v 0.5 18 3
v -0.5 18 2
v 0.5 18 2
v -0.5 19 2
v 0.5 19 2
v -1.5 19 -0
v -0.5 19 -0
v 0.5 19 -0
v -1.5 19 -3
v -0.5 19 -3
v 0.5 19 -3
v -0.5 19 -5
v 0.5 19 -5
v -0.5 21 5
v 0.5 21 5
v -1.5 21 4
v -0.5 21 4
v 0.5 21 4
v 1.5 21 4
v -1.5 21 3
v -0.5 21 3
v 0.5 21 3
v 1.5 21 3
v -0.5 21 2
v 0.5 21 2
v -0.5 22 4
v 0.5 22 4
v -0.5 22 3
v 0.5 22 3

# faces
f 3/3/1 2/3/1 1/3/1
f 4/3/1 2/3/1 3/3/1
f 7/1/1 6/1/1 5/1/1
f 8/1/1 6/1/1 7/1/1
f 9/1/1 7/1/1 5/1/1
f 10/5/1 8/5/1 7/5/1
f 10/1/1 7/1/1 9/1/1
f 11/1/1 6/1/1 8/1/1
f 11/5/1 8/5/1 10/5/1
f 12/1/1 6/1/1 11/1/1
f 13/5/1 10/5/1 9/5/1
f 14/1/1 11/1/1 10/1/1
f 14/5/1 10/5/1 13/5/1
f 15/5/1 12/5/1 11/5/1
f 15/1/1 11/1/1 14/1/1
f 16/5/1 12/5/1 15/5/1
f 17/2/1 14/2/1 13/2/1
f 17/5/1 15/5/1 14/5/1
f 18/2/1 16/2/1 15/2/1
f 18/5/1 15/5/1 17/5/1
f 19/2/1 17/2/1 13/2/1
f 19/2/1 18/2/1 17/2/1
f 20/2/1 16/2/1 18/2/1
f 20/2/1 18/2/1 19/2/1
f 23/4/1 22/4/1 21/4/1
f 24/4/1 22/4/1 23/4/1
f 29/3/1 26/3/1 25/3/1
f 30/3/1 26/3/1 29/3/1
f 31/3/1 28/3/1 27/3/1
f 32/3/1 28/3/1 31/3/1
f 37/3/1 31/3/1 30/3/1
f 38/1/1 34/1/1 33/1/1
f 39/3/1 37/3/1 30/3/1
f 39/3/1 38/3/1 37/3/1
f 40/1/1 34/1/1 38/1/1
f 40/3/1 38/3/1 39/3/1
f 41/1/1 34/1/1 40/1/1
f 42/1/1 36/1/1 35/1/1
f 43/1/1 36/1/1 42/1/1
f 44/3/1 39/3/1 30/3/1
f 45/5/1 41/5/1 40/5/1
f 46/5/1 41/5/1 45/5/1
f 47/5/1 43/5/1 42/5/1
f 48/5/1 43/5/1 47/5/1
f 49/3/1 44/3/1 30/3/1
f 49/3/1 45/3/1 44/3/1
f 50/2/1 46/2/1 45/2/1
f 50/3/1 45/3/1 49/3/1
f 51/3/1 49/3/1 30/3/1
f 52/3/1 49/3/1 51/3/1
f 53/2/1 46/2/1 50/2/1
f 54/2/1 46/2/1 53/2/1
f 55/2/1 48/2/1 47/2/1
f 56/2/1 48/2/1 55/2/1
f 58/4/1 52/4/1 51/4/1
f 59/4/1 52/4/1 58/4/1
f 61/4/1 58/4/1 57/4/1
f 62/4/1 58/4/1 61/4/1
f 63/4/1 60/4/1 59/4/1
f 64/4/1 60/4/1 63/4/1
f 65/4/1 63/4/1 62/4/1
f 66/4/1 63/4/1 65/4/1
f 67/1/2 68/1/2 69/1/2
f 69/1/2 68/1/2 70/1/2
f 67/1/2 69/1/2 71/1/2
f 69/5/2 70/5/2 72/5/2
f 71/1/2 69/1/2 72/1/2
f 70/1/2 68/1/2 73/1/2
f 72/5/2 70/5/2 73/5/2
f 73/1/2 68/1/2 74/1/2
f 71/5/2 72/5/2 75/5/2
f 72/1/2 73/1/2 76/1/2
f 75/5/2 72/5/2 76/5/2
f 73/5/2 74/5/2 77/5/2
f 76/1/2 73/1/2 77/1/2
f 77/5/2 74/5/2 78/5/2
f 75/2/2 76/2/2 79/2/2
f 76/5/2 77/5/2 79/5/2
f 77/2/2 78/2/2 80/2/2
f 79/5/2 77/5/2 80/5/2
f 75/2/2 79/2/2 81/2/2
f 79/2/2 80/2/2 81/2/2
f 80/2/2 78/2/2 82/2/2
f 81/2/2 80/2/2 82/2/2
f 83/3/2 84/3/2 87/3/2
f 87/3/2 84/3/2 88/3/2
f 85/3/2 86/3/2 89/3/2
f 89/3/2 86/3/2 90/3/2
f 88/3/2 89/3/2 95/3/2
f 91/1/2 92/1/2 96/1/2
f 88/3/2 95/3/2 97/3/2
f 95/3/2 96/3/2 97/3/2
f 96/1/2 92/1/2 98/1/2
f 97/3/2 96/3/2 98/3/2
f 98/1/2 92/1/2 99/1/2
f 93/1/2 94/1/2 100/1/2
f 100/1/2 94/1/2 101/1/2
f 88/3/2 97/3/2 102/3/2
f 98/5/2 99/5/2 103/5/2
f 103/5/2 99/5/2 104/5/2
f 100/5/2 101/5/2 105/5/2
f 105/5/2 101/5/2 106/5/2
f 88/3/2 102/3/2 107/3/2
f 102/3/2 103/3/2 107/3/2
f 103/2/2 104/2/2 108/2/2
f 107/3/2 103/3/2 108/3/2
f 88/3/2 107/3/2 109/3/2
f 109/3/2 107/3/2 110/3/2
f 108/2/2 104/2/2 111/2/2
f 111/2/2 104/2/2 112/2/2
f 105/2/2 106/2/2 113/2/2
f 113/2/2 106/2/2 114/2/2
f 109/4/2 110/4/2 116/4/2
f 116/4/2 110/4/2 117/4/2
f 115/4/2 116/4/2 119/4/2
f 119/4/2 116/4/2 120/4/2
f 117/4/2 118/4/2 121/4/2
f 121/4/2 118/4/2 122/4/2
f 120/4/2 121/4/2 123/4/2
f 123/4/2 121/4/2 124/4/2
f 125/3/2 126/3/2 127/3/2
f 127/3/2 126/3/2 128/3/2
f 129/4/2 130/4/2 131/4/2
f 131/4/2 130/4/2 132/4/2
f 137/3/3 134/3/3 133/3/3
f 138/3/3 134/3/3 137/3/3
f 139/4/3 136/4/3 135/4/3
f 140/4/3 136/4/3 139/4/3
f 145/3/3 142/3/3 141/3/3
f 146/3/3 142/3/3 145/3/3
f 148/4/3 144/4/3 143/4/3
f 149/4/3 144/4/3 148/4/3
f 152/3/3 147/3/3 146/3/3
f 153/4/3 148/4/3 147/4/3
f 153/3/3 147/3/3 152/3/3
f 154/4/3 148/4/3 153/4/3
f 155/4/3 150/4/3 149/4/3
f 156/4/3 150/4/3 155/4/3
f 157/3/3 152/3/3 151/3/3
f 158/3/3 152/3/3 157/3/3
f 159/4/3 155/4/3 154/4/3
f 160/4/3 155/4/3 159/4/3
f 167/1/3 162/1/3 161/1/3
f 168/1/3 162/1/3 167/1/3
f 169/5/3 164/5/3 163/5/3
f 170/5/3 164/5/3 169/5/3
f 171/2/3 166/2/3 165/2/3
f 172/2/3 166/2/3 171/2/3
f 177/1/3 174/1/3 173/1/3
f 178/5/3 175/5/3 174/5/3
f 178/1/3 174/1/3 177/1/3
f 179/2/3 176/2/3 175/2/3
f 179/5/3 175/5/3 178/5/3
f 180/2/3 176/2/3 179/2/3
f 185/1/3 182/1/3 181/1/3
f 186/5/3 183/5/3 182/5/3
f 186/1/3 182/1/3 185/1/3
f 187/2/3 184/2/3 183/2/3
f 187/5/3 183/5/3 186/5/3
f 188/2/3 184/2/3 187/2/3
f 189/3/4 190/3/4 193/3/4
f 193/3/4 190/3/4 194/3/4
f 191/4/4 192/4/4 200/4/4
f 200/4/4 192/4/4 201/4/4
f 194/3/4 195/3/4 204/3/4
f 204/3/4 195/3/4 205/3/4
f 196/3/4 197/3/4 206/3/4
f 206/3/4 197/3/4 207/3/4
f 198/3/4 199/3/4 208/3/4
f 199/4/4 200/4/4 209/4/4
f 208/3/4 199/3/4 209/3/4
f 209/4/4 200/4/4 210/4/4
f 201/4/4 202/4/4 211/4/4
f 211/4/4 202/4/4 212/4/4
f 203/3/4 204/3/4 213/3/4
f 213/3/4 204/3/4 214/3/4
f 210/4/4 211/4/4 215/4/4
f 215/4/4 211/4/4 216/4/4
f 217/3/4 218/3/4 221/3/4
f 221/3/4 218/3/4 222/3/4
f 219/4/4 220/4/4 223/4/4
f 223/4/4 220/4/4 224/4/4
f 225/1/4 226/1/4 229/1/4
f 226/5/4 227/5/4 230/5/4
f 229/1/4 226/1/4 230/1/4
f 227/2/4 228/2/4 231/2/4
f 230/5/4 227/5/4 231/5/4
f 231/2/4 228/2/4 232/2/4
f 233/1/4 234/1/4 237/1/4
f 234/5/4 235/5/4 238/5/4
f 237/1/4 234/1/4 238/1/4
f 235/2/4 236/2/4 239/2/4
f 238/5/4 235/5/4 239/5/4
f 239/2/4 236/2/4 240/2/4
f 241/1/4 242/1/4 245/1/4
f 242/5/4 243/5/4 246/5/4
f 245/1/4 242/1/4 246/1/4
f 243/2/4 244/2/4 247/2/4
f 246/5/4 243/5/4 247/5/4
f 247/2/4 244/2/4 248/2/4
f 252/3/5 250/3/5 249/3/5
f 253/3/5 250/3/5 252/3/5
f 255/3/5 252/3/5 251/3/5
f 255/3/5 254/3/5 253/3/5
f 255/3/5 253/3/5 252/3/5
f 256/3/5 254/3/5 255/3/5
f 257/3/5 254/3/5 256/3/5
f 258/3/5 254/3/5 257/3/5
f 259/3/5 257/3/5 256/3/5
f 260/3/5 257/3/5 259/3/5
f 264/1/5 262/1/5 261/1/5
f 265/1/5 262/1/5 264/1/5
f 266/1/5 264/1/5 263/1/5
f 267/1/5 264/1/5 266/1/5
f 269/1/5 268/1/5 267/1/5
f 270/1/5 268/1/5 269/1/5
f 273/3/5 272/3/5 271/3/5
f 274/3/5 272/3/5 273/3/5
f 277/3/5 276/3/5 275/3/5
f 278/3/5 276/3/5 277/3/5
f 282/4/5 280/4/5 279/4/5
f 283/4/5 280/4/5 282/4/5
f 285/4/5 282/4/5 281/4/5
f 286/4/5 282/4/5 285/4/5
f 287/4/5 284/4/5 283/4/5
f 288/4/5 284/4/5 287/4/5
f 289/4/5 287/4/5 286/4/5
f 290/4/5 287/4/5 289/4/5
f 291/3/6 292/3/6 294/3/6
f 294/3/6 292/3/6 295/3/6
f 293/3/6 294/3/6 297/3/6
f 297/3/6 294/3/6 298/3/6
f 295/3/6 296/3/6 299/3/6
f 299/3/6 296/3/6 300/3/6
f 298/3/6 299/3/6 301/3/6
f 301/3/6 299/3/6 302/3/6
f 303/3/6 304/3/6 305/3/6
f 305/3/6 304/3/6 306/3/6
f 307/3/6 308/3/6 309/3/6
f 309/3/6 308/3/6 310/3/6
f 311/2/6 312/2/6 314/2/6
f 314/2/6 312/2/6 315/2/6
f 313/2/6 314/2/6 316/2/6
f 316/2/6 314/2/6 317/2/6
f 317/2/6 318/2/6 319/2/6
f 319/2/6 318/2/6 320/2/6
f 321/4/6 322/4/6 324/4/6
f 324/4/6 322/4/6 325/4/6
f 323/4/6 324/4/6 327/4/6
f 327/4/6 324/4/6 328/4/6
f 325/4/6 326/4/6 329/4/6
f 329/4/6 326/4/6 330/4/6
f 328/4/6 329/4/6 331/4/6
f 331/4/6 329/4/6 332/4/6
f 333/4/6 334/4/6 335/4/6
f 335/4/6 334/4/6 336/4/6
