# MagicaVoxel @ Ephtracy

# group
g Little flower 2

# material
mtllib Little flower 2.mtl
usemtl palette

# normals
vn -1 0 0
vn 1 0 0
vn 0 0 1
vn 0 0 -1
vn 0 -1 0
vn 0 1 0

# texcoords
vt 0.595703 0.5
vt 0.791016 0.5

# verts
v -1.5 4 0.5
v -1.5 4 -0.5
v -1.5 5 0.5
v -1.5 5 -0.5
v -0.5 0 -0.5
v -0.5 0 -1.5
v -0.5 3 0.5
v -0.5 3 -0.5
v -0.5 4 1.5
v -0.5 4 0.5
v -0.5 4 -0.5
v -0.5 5 1.5
v -0.5 5 0.5
v -0.5 5 -0.5
v -0.5 5 -1.5
v -0.5 6 0.5
v -0.5 6 -0.5
v 0.5 0 -0.5
v 0.5 0 -1.5
v 0.5 3 0.5
v 0.5 3 -0.5
v 0.5 4 1.5
v 0.5 4 0.5
v 0.5 4 -0.5
v 0.5 5 1.5
v 0.5 5 0.5
v 0.5 5 -0.5
v 0.5 5 -1.5
v 0.5 6 0.5
v 0.5 6 -0.5
v 1.5 4 0.5
v 1.5 4 -0.5
v 1.5 5 0.5
v 1.5 5 -0.5
v -0.5 4 1.5
v -0.5 5 1.5
v 0.5 4 1.5
v 0.5 5 1.5
v -1.5 4 0.5
v -1.5 5 0.5
v -0.5 3 0.5
v -0.5 4 0.5
v -0.5 5 0.5
v -0.5 6 0.5
v 0.5 3 0.5
v 0.5 4 0.5
v 0.5 5 0.5
v 0.5 6 0.5
v 1.5 4 0.5
v 1.5 5 0.5
v -0.5 0 -0.5
v -0.5 3 -0.5
v 0.5 0 -0.5
v 0.5 3 -0.5
v -1.5 4 -0.5
v -1.5 5 -0.5
v -0.5 4 -0.5
v -0.5 5 -0.5
v -0.5 6 -0.5
v 0.5 4 -0.5
v 0.5 5 -0.5
v 0.5 6 -0.5
v 1.5 4 -0.5
v 1.5 5 -0.5
v -0.5 0 -1.5
v -0.5 5 -1.5
v 0.5 0 -1.5
v 0.5 5 -1.5
v -0.5 0 -0.5
v 0.5 0 -0.5
v -0.5 0 -1.5
v 0.5 0 -1.5
v -0.5 3 0.5
v 0.5 3 0.5
v -0.5 3 -0.5
v 0.5 3 -0.5
v -0.5 4 1.5
v 0.5 4 1.5
v -1.5 4 0.5
v -0.5 4 0.5
v 0.5 4 0.5
v 1.5 4 0.5
v -1.5 4 -0.5
v -0.5 4 -0.5
v 0.5 4 -0.5
v 1.5 4 -0.5
v -0.5 5 1.5
v 0.5 5 1.5
v -1.5 5 0.5
v -0.5 5 0.5
v 0.5 5 0.5
v 1.5 5 0.5
v -1.5 5 -0.5
v -0.5 5 -0.5
v 0.5 5 -0.5
v 1.5 5 -0.5
v -0.5 5 -1.5
v 0.5 5 -1.5
v -0.5 6 0.5
v 0.5 6 0.5
v -0.5 6 -0.5
v 0.5 6 -0.5

# faces
f 3/1/1 2/1/1 1/1/1
f 4/1/1 2/1/1 3/1/1
f 8/2/1 6/2/1 5/2/1
f 10/1/1 8/1/1 7/1/1
f 11/2/1 6/2/1 8/2/1
f 11/1/1 8/1/1 10/1/1
f 12/1/1 10/1/1 9/1/1
f 13/1/1 10/1/1 12/1/1
f 14/2/1 6/2/1 11/2/1
f 15/2/1 6/2/1 14/2/1
f 16/1/1 14/1/1 13/1/1
f 17/1/1 14/1/1 16/1/1
f 18/2/2 19/2/2 21/2/2
f 20/1/2 21/1/2 23/1/2
f 21/2/2 19/2/2 24/2/2
f 23/1/2 21/1/2 24/1/2
f 22/1/2 23/1/2 25/1/2
f 25/1/2 23/1/2 26/1/2
f 24/2/2 19/2/2 27/2/2
f 27/2/2 19/2/2 28/2/2
f 26/1/2 27/1/2 29/1/2
f 29/1/2 27/1/2 30/1/2
f 31/1/2 32/1/2 33/1/2
f 33/1/2 32/1/2 34/1/2
f 37/1/3 36/1/3 35/1/3
f 38/1/3 36/1/3 37/1/3
f 42/1/3 40/1/3 39/1/3
f 43/1/3 40/1/3 42/1/3
f 45/1/3 42/1/3 41/1/3
f 46/1/3 42/1/3 45/1/3
f 47/1/3 44/1/3 43/1/3
f 48/1/3 44/1/3 47/1/3
f 49/1/3 47/1/3 46/1/3
f 50/1/3 47/1/3 49/1/3
f 53/2/3 52/2/3 51/2/3
f 54/2/3 52/2/3 53/2/3
f 55/1/4 56/1/4 57/1/4
f 57/1/4 56/1/4 58/1/4
f 58/1/4 59/1/4 61/1/4
f 61/1/4 59/1/4 62/1/4
f 60/1/4 61/1/4 63/1/4
f 63/1/4 61/1/4 64/1/4
f 65/2/4 66/2/4 67/2/4
f 67/2/4 66/2/4 68/2/4
f 71/2/5 70/2/5 69/2/5
f 72/2/5 70/2/5 71/2/5
f 75/1/5 74/1/5 73/1/5
f 76/1/5 74/1/5 75/1/5
f 80/1/5 78/1/5 77/1/5
f 81/1/5 78/1/5 80/1/5
f 83/1/5 80/1/5 79/1/5
f 84/1/5 80/1/5 83/1/5
f 85/1/5 82/1/5 81/1/5
f 86/1/5 82/1/5 85/1/5
f 87/1/6 88/1/6 90/1/6
f 90/1/6 88/1/6 91/1/6
f 89/1/6 90/1/6 93/1/6
f 93/1/6 90/1/6 94/1/6
f 91/1/6 92/1/6 95/1/6
f 95/1/6 92/1/6 96/1/6
f 94/2/6 95/2/6 97/2/6
f 97/2/6 95/2/6 98/2/6
f 99/1/6 100/1/6 101/1/6
f 101/1/6 100/1/6 102/1/6
