# MagicaVoxel @ Ephtracy

# group
g Little flower 1

# material
mtllib Little flower 1.mtl
usemtl palette

# normals
vn -1 0 0
vn 1 0 0
vn 0 0 1
vn 0 0 -1
vn 0 -1 0
vn 0 1 0

# texcoords
vt 0.642578 0.5
vt 0.646484 0.5
vt 0.716797 0.5

# verts
v -1.5 4 1
v -1.5 4 -0
v -1.5 5 1
v -1.5 5 -0
v -0.5 0 -1
v -0.5 0 -2
v -0.5 2 -0
v -0.5 2 -1
v -0.5 3 1
v -0.5 3 -0
v -0.5 3 -1
v -0.5 3 -2
v -0.5 4 2
v -0.5 4 1
v -0.5 4 -0
v -0.5 5 2
v -0.5 5 1
v -0.5 5 -0
v -0.5 5 -1
v -0.5 6 1
v -0.5 6 -0
v 0.5 0 -1
v 0.5 0 -2
v 0.5 2 -0
v 0.5 2 -1
v 0.5 3 1
v 0.5 3 -0
v 0.5 3 -1
v 0.5 3 -2
v 0.5 4 2
v 0.5 4 1
v 0.5 4 -0
v 0.5 5 2
v 0.5 5 1
v 0.5 5 -0
v 0.5 5 -1
v 0.5 6 1
v 0.5 6 -0
v 1.5 4 1
v 1.5 4 -0
v 1.5 5 1
v 1.5 5 -0
v -0.5 4 2
v -0.5 5 2
v 0.5 4 2
v 0.5 5 2
v -1.5 4 1
v -1.5 5 1
v -0.5 3 1
v -0.5 4 1
v -0.5 5 1
v -0.5 6 1
v 0.5 3 1
v 0.5 4 1
v 0.5 5 1
v 0.5 6 1
v 1.5 4 1
v 1.5 5 1
v -0.5 2 -0
v -0.5 3 -0
v 0.5 2 -0
v 0.5 3 -0
v -0.5 0 -1
v -0.5 2 -1
v 0.5 0 -1
v 0.5 2 -1
v -1.5 4 -0
v -1.5 5 -0
v -0.5 4 -0
v -0.5 5 -0
v -0.5 6 -0
v 0.5 4 -0
v 0.5 5 -0
v 0.5 6 -0
v 1.5 4 -0
v 1.5 5 -0
v -0.5 3 -1
v -0.5 5 -1
v 0.5 3 -1
v 0.5 5 -1
v -0.5 0 -2
v -0.5 3 -2
v 0.5 0 -2
v 0.5 3 -2
v -0.5 0 -1
v 0.5 0 -1
v -0.5 0 -2
v 0.5 0 -2
v -0.5 2 -0
v 0.5 2 -0
v -0.5 2 -1
v 0.5 2 -1
v -0.5 3 1
v 0.5 3 1
v -0.5 3 -0
v 0.5 3 -0
v -0.5 4 2
v 0.5 4 2
v -1.5 4 1
v -0.5 4 1
v 0.5 4 1
v 1.5 4 1
v -1.5 4 -0
v -0.5 4 -0
v 0.5 4 -0
v 1.5 4 -0
v -0.5 3 -1
v 0.5 3 -1
v -0.5 3 -2
v 0.5 3 -2
v -0.5 5 2
v 0.5 5 2
v -1.5 5 1
v -0.5 5 1
v 0.5 5 1
v 1.5 5 1
v -1.5 5 -0
v -0.5 5 -0
v 0.5 5 -0
v 1.5 5 -0
v -0.5 5 -1
v 0.5 5 -1
v -0.5 6 1
v 0.5 6 1
v -0.5 6 -0
v 0.5 6 -0

# faces
f 3/2/1 2/2/1 1/2/1
f 4/2/1 2/2/1 3/2/1
f 8/3/1 6/3/1 5/3/1
f 10/3/1 8/3/1 7/3/1
f 11/3/1 6/3/1 8/3/1
f 11/3/1 8/3/1 10/3/1
f 12/3/1 6/3/1 11/3/1
f 14/2/1 10/2/1 9/2/1
f 15/3/1 11/3/1 10/3/1
f 15/2/1 10/2/1 14/2/1
f 16/2/1 14/2/1 13/2/1
f 17/2/1 14/2/1 16/2/1
f 18/3/1 11/3/1 15/3/1
f 19/3/1 11/3/1 18/3/1
f 20/2/1 18/2/1 17/2/1
f 21/2/1 18/2/1 20/2/1
f 22/3/2 23/3/2 25/3/2
f 24/3/2 25/3/2 27/3/2
f 25/3/2 23/3/2 28/3/2
f 27/3/2 25/3/2 28/3/2
f 28/3/2 23/3/2 29/3/2
f 26/2/2 27/2/2 31/2/2
f 27/3/2 28/3/2 32/3/2
f 31/2/2 27/2/2 32/2/2
f 30/2/2 31/2/2 33/2/2
f 33/2/2 31/2/2 34/2/2
f 32/3/2 28/3/2 35/3/2
f 35/3/2 28/3/2 36/3/2
f 34/2/2 35/2/2 37/2/2
f 37/2/2 35/2/2 38/2/2
f 39/2/2 40/2/2 41/2/2
f 41/2/2 40/2/2 42/2/2
f 45/2/3 44/2/3 43/2/3
f 46/2/3 44/2/3 45/2/3
f 50/2/3 48/2/3 47/2/3
f 51/2/3 48/2/3 50/2/3
f 53/2/3 50/2/3 49/2/3
f 54/2/3 50/2/3 53/2/3
f 55/2/3 52/2/3 51/2/3
f 56/2/3 52/2/3 55/2/3
f 57/2/3 55/2/3 54/2/3
f 58/2/3 55/2/3 57/2/3
f 61/3/3 60/3/3 59/3/3
f 62/3/3 60/3/3 61/3/3
f 65/3/3 64/3/3 63/3/3
f 66/3/3 64/3/3 65/3/3
f 67/2/4 68/2/4 69/2/4
f 69/2/4 68/2/4 70/2/4
f 70/2/4 71/2/4 73/2/4
f 73/2/4 71/2/4 74/2/4
f 72/2/4 73/2/4 75/2/4
f 75/2/4 73/2/4 76/2/4
f 77/3/4 78/3/4 79/3/4
f 79/3/4 78/3/4 80/3/4
f 81/3/4 82/3/4 83/3/4
f 83/3/4 82/3/4 84/3/4
f 87/3/5 86/3/5 85/3/5
f 88/3/5 86/3/5 87/3/5
f 91/3/5 90/3/5 89/3/5
f 92/3/5 90/3/5 91/3/5
f 95/2/5 94/2/5 93/2/5
f 96/2/5 94/2/5 95/2/5
f 100/2/5 98/2/5 97/2/5
f 101/2/5 98/2/5 100/2/5
f 103/2/5 100/2/5 99/2/5
f 104/2/5 100/2/5 103/2/5
f 105/2/5 102/2/5 101/2/5
f 106/2/5 102/2/5 105/2/5
f 107/3/6 108/3/6 109/3/6
f 109/3/6 108/3/6 110/3/6
f 111/2/6 112/2/6 114/2/6
f 114/2/6 112/2/6 115/2/6
f 113/2/6 114/2/6 117/2/6
f 117/2/6 114/2/6 118/2/6
f 115/2/6 116/2/6 119/2/6
f 119/2/6 116/2/6 120/2/6
f 118/3/6 119/3/6 121/3/6
f 121/3/6 119/3/6 122/3/6
f 123/2/6 124/2/6 125/2/6
f 125/2/6 124/2/6 126/2/6
