# MagicaVoxel @ Ephtracy

# group
g Plant yellow

# material
mtllib Plant yellow.mtl
usemtl palette

# normals
vn -1 0 0
vn 1 0 0
vn 0 0 1
vn 0 0 -1
vn 0 -1 0
vn 0 1 0

# texcoords
vt 0.00195313 0.5
vt 0.115234 0.5
vt 0.869141 0.5
vt 0.904297 0.5

# verts
v -2.5 4 0.5
v -2.5 4 -0.5
v -2.5 5 0.5
v -2.5 5 -0.5
v -2.5 6 0.5
v -2.5 6 -0.5
v -1.5 2 1.5
v -1.5 2 0.5
v -1.5 2 -0.5
v -1.5 2 -1.5
v -1.5 3 1.5
v -1.5 3 0.5
v -1.5 3 -0.5
v -1.5 3 -1.5
v -1.5 4 1.5
v -1.5 4 0.5
v -1.5 4 -0.5
v -1.5 4 -1.5
v -1.5 5 1.5
v -1.5 5 0.5
v -1.5 5 -0.5
v -1.5 5 -1.5
v -1.5 6 1.5
v -1.5 6 0.5
v -1.5 6 -0.5
v -1.5 6 -1.5
v -1.5 7 0.5
v -1.5 7 -0.5
v -0.5 0 0.5
v -0.5 0 -0.5
v -0.5 2 0.5
v -0.5 2 -0.5
v -0.5 4 2.5
v -0.5 4 1.5
v -0.5 4 -1.5
v -0.5 4 -2.5
v -0.5 5 2.5
v -0.5 5 1.5
v -0.5 5 -1.5
v -0.5 5 -2.5
v -0.5 6 2.5
v -0.5 6 1.5
v -0.5 6 0.5
v -0.5 6 -0.5
v -0.5 6 -1.5
v -0.5 6 -2.5
v -0.5 7 1.5
v -0.5 7 0.5
v -0.5 7 -0.5
v -0.5 7 -1.5
v -0.5 8 0.5
v -0.5 8 -0.5
v 0.5 0 0.5
v 0.5 0 -0.5
v 0.5 2 0.5
v 0.5 2 -0.5
v 0.5 4 2.5
v 0.5 4 1.5
v 0.5 4 -1.5
v 0.5 4 -2.5
v 0.5 5 2.5
v 0.5 5 1.5
v 0.5 5 -1.5
v 0.5 5 -2.5
v 0.5 6 2.5
v 0.5 6 1.5
v 0.5 6 0.5
v 0.5 6 -0.5
v 0.5 6 -1.5
v 0.5 6 -2.5
v 0.5 7 1.5
v 0.5 7 0.5
v 0.5 7 -0.5
v 0.5 7 -1.5
v 0.5 8 0.5
v 0.5 8 -0.5
v 1.5 2 1.5
v 1.5 2 0.5
v 1.5 2 -0.5
v 1.5 2 -1.5
v 1.5 3 1.5
v 1.5 3 0.5
v 1.5 3 -0.5
v 1.5 3 -1.5
v 1.5 4 1.5
v 1.5 4 0.5
v 1.5 4 -0.5
v 1.5 4 -1.5
v 1.5 5 1.5
v 1.5 5 0.5
v 1.5 5 -0.5
v 1.5 5 -1.5
v 1.5 6 1.5
v 1.5 6 0.5
v 1.5 6 -0.5
v 1.5 6 -1.5
v 1.5 7 0.5
v 1.5 7 -0.5
v 2.5 4 0.5
v 2.5 4 -0.5
v 2.5 5 0.5
v 2.5 5 -0.5
v 2.5 6 0.5
v 2.5 6 -0.5
v -0.5 4 2.5
v -0.5 5 2.5
v -0.5 6 2.5
v 0.5 4 2.5
v 0.5 5 2.5
v 0.5 6 2.5
v -1.5 2 1.5
v -1.5 3 1.5
v -1.5 4 1.5
v -1.5 5 1.5
v -1.5 6 1.5
v -0.5 2 1.5
v -0.5 3 1.5
v -0.5 4 1.5
v -0.5 5 1.5
v -0.5 6 1.5
v -0.5 7 1.5
v 0.5 2 1.5
v 0.5 3 1.5
v 0.5 4 1.5
v 0.5 5 1.5
v 0.5 6 1.5
v 0.5 7 1.5
v 1.5 2 1.5
v 1.5 3 1.5
v 1.5 4 1.5
v 1.5 5 1.5
v 1.5 6 1.5
v -2.5 4 0.5
v -2.5 5 0.5
v -2.5 6 0.5
v -1.5 4 0.5
v -1.5 5 0.5
v -1.5 6 0.5
v -1.5 7 0.5
v -0.5 0 0.5
v -0.5 2 0.5
v -0.5 6 0.5
v -0.5 7 0.5
v -0.5 8 0.5
v 0.5 0 0.5
v 0.5 2 0.5
v 0.5 6 0.5
v 0.5 7 0.5
v 0.5 8 0.5
v 1.5 4 0.5
v 1.5 5 0.5
v 1.5 6 0.5
v 1.5 7 0.5
v 2.5 4 0.5
v 2.5 5 0.5
v 2.5 6 0.5
v -2.5 4 -0.5
v -2.5 5 -0.5
v -2.5 6 -0.5
v -1.5 4 -0.5
v -1.5 5 -0.5
v -1.5 6 -0.5
v -1.5 7 -0.5
v -0.5 0 -0.5
v -0.5 2 -0.5
v -0.5 6 -0.5
v -0.5 7 -0.5
v -0.5 8 -0.5
v 0.5 0 -0.5
v 0.5 2 -0.5
v 0.5 6 -0.5
v 0.5 7 -0.5
v 0.5 8 -0.5
v 1.5 4 -0.5
v 1.5 5 -0.5
v 1.5 6 -0.5
v 1.5 7 -0.5
v 2.5 4 -0.5
v 2.5 5 -0.5
v 2.5 6 -0.5
v -1.5 2 -1.5
v -1.5 3 -1.5
v -1.5 4 -1.5
v -1.5 5 -1.5
v -1.5 6 -1.5
v -0.5 2 -1.5
v -0.5 3 -1.5
v -0.5 4 -1.5
v -0.5 5 -1.5
v -0.5 6 -1.5
v -0.5 7 -1.5
v 0.5 2 -1.5
v 0.5 3 -1.5
v 0.5 4 -1.5
v 0.5 5 -1.5
v 0.5 6 -1.5
v 0.5 7 -1.5
v 1.5 2 -1.5
v 1.5 3 -1.5
v 1.5 4 -1.5
v 1.5 5 -1.5
v 1.5 6 -1.5
v -0.5 4 -2.5
v -0.5 5 -2.5
v -0.5 6 -2.5
v 0.5 4 -2.5
v 0.5 5 -2.5
v 0.5 6 -2.5
v -0.5 0 0.5
v 0.5 0 0.5
v -0.5 0 -0.5
v 0.5 0 -0.5
v -1.5 2 1.5
v -0.5 2 1.5
v 0.5 2 1.5
v 1.5 2 1.5
v -1.5 2 0.5
v -0.5 2 0.5
v 0.5 2 0.5
v 1.5 2 0.5
v -1.5 2 -0.5
v -0.5 2 -0.5
v 0.5 2 -0.5
v 1.5 2 -0.5
v -1.5 2 -1.5
v -0.5 2 -1.5
v 0.5 2 -1.5
v 1.5 2 -1.5
v -0.5 4 2.5
v 0.5 4 2.5
v -0.5 4 1.5
v 0.5 4 1.5
v -2.5 4 0.5
v -1.5 4 0.5
v 1.5 4 0.5
v 2.5 4 0.5
v -2.5 4 -0.5
v -1.5 4 -0.5
v 1.5 4 -0.5
v 2.5 4 -0.5
v -0.5 4 -1.5
v 0.5 4 -1.5
v -0.5 4 -2.5
v 0.5 4 -2.5
v -0.5 6 2.5
v 0.5 6 2.5
v -1.5 6 1.5
v -0.5 6 1.5
v 0.5 6 1.5
v 1.5 6 1.5
v -2.5 6 0.5
v -1.5 6 0.5
v -0.5 6 0.5
v 0.5 6 0.5
v 1.5 6 0.5
v 2.5 6 0.5
v -2.5 6 -0.5
v -1.5 6 -0.5
v -0.5 6 -0.5
v 0.5 6 -0.5
v 1.5 6 -0.5
v 2.5 6 -0.5
v -1.5 6 -1.5
v -0.5 6 -1.5
v 0.5 6 -1.5
v 1.5 6 -1.5
v -0.5 6 -2.5
v 0.5 6 -2.5
v -0.5 7 1.5
v 0.5 7 1.5
v -1.5 7 0.5
v -0.5 7 0.5
v 0.5 7 0.5
v 1.5 7 0.5
v -1.5 7 -0.5
v -0.5 7 -0.5
v 0.5 7 -0.5
v 1.5 7 -0.5
v -0.5 7 -1.5
v 0.5 7 -1.5
v -0.5 8 0.5
v 0.5 8 0.5
v -0.5 8 -0.5
v 0.5 8 -0.5

# faces
f 3/2/1 2/2/1 1/2/1
f 4/2/1 2/2/1 3/2/1
f 5/1/1 4/1/1 3/1/1
f 6/1/1 4/1/1 5/1/1
f 11/2/1 8/2/1 7/2/1
f 12/4/1 9/4/1 8/4/1
f 12/2/1 8/2/1 11/2/1
f 13/2/1 10/2/1 9/2/1
f 13/4/1 9/4/1 12/4/1
f 14/2/1 10/2/1 13/2/1
f 15/1/1 12/1/1 11/1/1
f 16/4/1 13/4/1 12/4/1
f 16/1/1 12/1/1 15/1/1
f 17/1/1 14/1/1 13/1/1
f 17/4/1 13/4/1 16/4/1
f 18/1/1 14/1/1 17/1/1
f 19/4/1 16/4/1 15/4/1
f 20/4/1 16/4/1 19/4/1
f 21/4/1 18/4/1 17/4/1
f 22/4/1 18/4/1 21/4/1
f 23/1/1 20/1/1 19/1/1
f 24/1/1 20/1/1 23/1/1
f 25/1/1 22/1/1 21/1/1
f 26/1/1 22/1/1 25/1/1
f 27/1/1 25/1/1 24/1/1
f 28/1/1 25/1/1 27/1/1
f 31/3/1 30/3/1 29/3/1
f 32/3/1 30/3/1 31/3/1
f 37/2/1 34/2/1 33/2/1
f 38/2/1 34/2/1 37/2/1
f 39/2/1 36/2/1 35/2/1
f 40/2/1 36/2/1 39/2/1
f 41/1/1 38/1/1 37/1/1
f 42/1/1 38/1/1 41/1/1
f 45/1/1 40/1/1 39/1/1
f 46/1/1 40/1/1 45/1/1
f 47/1/1 43/1/1 42/1/1
f 48/1/1 43/1/1 47/1/1
f 49/1/1 45/1/1 44/1/1
f 50/1/1 45/1/1 49/1/1
f 51/1/1 49/1/1 48/1/1
f 52/1/1 49/1/1 51/1/1
f 53/3/2 54/3/2 55/3/2
f 55/3/2 54/3/2 56/3/2
f 57/2/2 58/2/2 61/2/2
f 61/2/2 58/2/2 62/2/2
f 59/2/2 60/2/2 63/2/2
f 63/2/2 60/2/2 64/2/2
f 61/1/2 62/1/2 65/1/2
f 65/1/2 62/1/2 66/1/2
f 63/1/2 64/1/2 69/1/2
f 69/1/2 64/1/2 70/1/2
f 66/1/2 67/1/2 71/1/2
f 71/1/2 67/1/2 72/1/2
f 68/1/2 69/1/2 73/1/2
f 73/1/2 69/1/2 74/1/2
f 72/1/2 73/1/2 75/1/2
f 75/1/2 73/1/2 76/1/2
f 77/2/2 78/2/2 81/2/2
f 78/4/2 79/4/2 82/4/2
f 81/2/2 78/2/2 82/2/2
f 79/2/2 80/2/2 83/2/2
f 82/4/2 79/4/2 83/4/2
f 83/2/2 80/2/2 84/2/2
f 81/1/2 82/1/2 85/1/2
f 82/4/2 83/4/2 86/4/2
f 85/1/2 82/1/2 86/1/2
f 83/1/2 84/1/2 87/1/2
f 86/4/2 83/4/2 87/4/2
f 87/1/2 84/1/2 88/1/2
f 85/4/2 86/4/2 89/4/2
f 89/4/2 86/4/2 90/4/2
f 87/4/2 88/4/2 91/4/2
f 91/4/2 88/4/2 92/4/2
f 89/1/2 90/1/2 93/1/2
f 93/1/2 90/1/2 94/1/2
f 91/1/2 92/1/2 95/1/2
f 95/1/2 92/1/2 96/1/2
f 94/1/2 95/1/2 97/1/2
f 97/1/2 95/1/2 98/1/2
f 99/2/2 100/2/2 101/2/2
f 101/2/2 100/2/2 102/2/2
f 101/1/2 102/1/2 103/1/2
f 103/1/2 102/1/2 104/1/2
f 108/2/3 106/2/3 105/2/3
f 109/1/3 107/1/3 106/1/3
f 109/2/3 106/2/3 108/2/3
f 110/1/3 107/1/3 109/1/3
f 116/2/3 112/2/3 111/2/3
f 117/1/3 113/1/3 112/1/3
f 117/2/3 112/2/3 116/2/3
f 118/4/3 114/4/3 113/4/3
f 118/1/3 113/1/3 117/1/3
f 119/1/3 115/1/3 114/1/3
f 119/4/3 114/4/3 118/4/3
f 120/1/3 115/1/3 119/1/3
f 122/4/3 118/4/3 117/4/3
f 122/4/3 117/4/3 116/4/3
f 123/4/3 118/4/3 122/4/3
f 124/4/3 118/4/3 123/4/3
f 126/1/3 121/1/3 120/1/3
f 127/1/3 121/1/3 126/1/3
f 128/2/3 123/2/3 122/2/3
f 129/1/3 124/1/3 123/1/3
f 129/2/3 123/2/3 128/2/3
f 130/4/3 125/4/3 124/4/3
f 130/1/3 124/1/3 129/1/3
f 131/1/3 126/1/3 125/1/3
f 131/4/3 125/4/3 130/4/3
f 132/1/3 126/1/3 131/1/3
f 136/2/3 134/2/3 133/2/3
f 137/1/3 135/1/3 134/1/3
f 137/2/3 134/2/3 136/2/3
f 138/1/3 135/1/3 137/1/3
f 142/1/3 139/1/3 138/1/3
f 143/1/3 139/1/3 142/1/3
f 145/3/3 141/3/3 140/3/3
f 146/3/3 141/3/3 145/3/3
f 148/1/3 144/1/3 143/1/3
f 149/1/3 144/1/3 148/1/3
f 152/1/3 148/1/3 147/1/3
f 153/1/3 148/1/3 152/1/3
f 154/2/3 151/2/3 150/2/3
f 155/1/3 152/1/3 151/1/3
f 155/2/3 151/2/3 154/2/3
f 156/1/3 152/1/3 155/1/3
f 157/2/4 158/2/4 160/2/4
f 158/1/4 159/1/4 161/1/4
f 160/2/4 158/2/4 161/2/4
f 161/1/4 159/1/4 162/1/4
f 162/1/4 163/1/4 166/1/4
f 166/1/4 163/1/4 167/1/4
f 164/3/4 165/3/4 169/3/4
f 169/3/4 165/3/4 170/3/4
f 167/1/4 168/1/4 172/1/4
f 172/1/4 168/1/4 173/1/4
f 171/1/4 172/1/4 176/1/4
f 176/1/4 172/1/4 177/1/4
f 174/2/4 175/2/4 178/2/4
f 175/1/4 176/1/4 179/1/4
f 178/2/4 175/2/4 179/2/4
f 179/1/4 176/1/4 180/1/4
f 181/2/4 182/2/4 186/2/4
f 182/1/4 183/1/4 187/1/4
f 186/2/4 182/2/4 187/2/4
f 183/4/4 184/4/4 188/4/4
f 187/1/4 183/1/4 188/1/4
f 184/1/4 185/1/4 189/1/4
f 188/4/4 184/4/4 189/4/4
f 189/1/4 185/1/4 190/1/4
f 187/4/4 188/4/4 192/4/4
f 186/4/4 187/4/4 192/4/4
f 192/4/4 188/4/4 193/4/4
f 193/4/4 188/4/4 194/4/4
f 190/1/4 191/1/4 196/1/4
f 196/1/4 191/1/4 197/1/4
f 192/2/4 193/2/4 198/2/4
f 193/1/4 194/1/4 199/1/4
f 198/2/4 193/2/4 199/2/4
f 194/4/4 195/4/4 200/4/4
f 199/1/4 194/1/4 200/1/4
f 195/1/4 196/1/4 201/1/4
f 200/4/4 195/4/4 201/4/4
f 201/1/4 196/1/4 202/1/4
f 203/2/4 204/2/4 206/2/4
f 204/1/4 205/1/4 207/1/4
f 206/2/4 204/2/4 207/2/4
f 207/1/4 205/1/4 208/1/4
f 211/3/5 210/3/5 209/3/5
f 212/3/5 210/3/5 211/3/5
f 217/2/5 214/2/5 213/2/5
f 218/4/5 215/4/5 214/4/5
f 218/2/5 214/2/5 217/2/5
f 219/2/5 216/2/5 215/2/5
f 219/4/5 215/4/5 218/4/5
f 220/2/5 216/2/5 219/2/5
f 221/4/5 218/4/5 217/4/5
f 222/4/5 218/4/5 221/4/5
f 223/4/5 220/4/5 219/4/5
f 224/4/5 220/4/5 223/4/5
f 225/2/5 222/2/5 221/2/5
f 226/4/5 223/4/5 222/4/5
f 226/2/5 222/2/5 225/2/5
f 227/2/5 224/2/5 223/2/5
f 227/4/5 223/4/5 226/4/5
f 228/2/5 224/2/5 227/2/5
f 231/2/5 230/2/5 229/2/5
f 232/2/5 230/2/5 231/2/5
f 237/2/5 234/2/5 233/2/5
f 238/2/5 234/2/5 237/2/5
f 239/2/5 236/2/5 235/2/5
f 240/2/5 236/2/5 239/2/5
f 243/2/5 242/2/5 241/2/5
f 244/2/5 242/2/5 243/2/5
f 245/1/6 246/1/6 248/1/6
f 248/1/6 246/1/6 249/1/6
f 247/1/6 248/1/6 252/1/6
f 252/1/6 248/1/6 253/1/6
f 249/1/6 250/1/6 254/1/6
f 254/1/6 250/1/6 255/1/6
f 251/1/6 252/1/6 257/1/6
f 257/1/6 252/1/6 258/1/6
f 255/1/6 256/1/6 261/1/6
f 261/1/6 256/1/6 262/1/6
f 258/1/6 259/1/6 263/1/6
f 263/1/6 259/1/6 264/1/6
f 260/1/6 261/1/6 265/1/6
f 265/1/6 261/1/6 266/1/6
f 264/1/6 265/1/6 267/1/6
f 267/1/6 265/1/6 268/1/6
f 269/1/6 270/1/6 272/1/6
f 272/1/6 270/1/6 273/1/6
f 271/1/6 272/1/6 275/1/6
f 275/1/6 272/1/6 276/1/6
f 273/1/6 274/1/6 277/1/6
f 277/1/6 274/1/6 278/1/6
f 276/1/6 277/1/6 279/1/6
f 279/1/6 277/1/6 280/1/6
f 281/1/6 282/1/6 283/1/6
f 283/1/6 282/1/6 284/1/6
