# MagicaVoxel @ Ephtracy

# group
g Pot_Plant

# material
mtllib Pot_Plant.mtl
usemtl palette

# normals
vn -1 0 0
vn 1 0 0
vn 0 0 1
vn 0 0 -1
vn 0 -1 0
vn 0 1 0

# texcoords
vt 0.177734 0.5
vt 0.400391 0.5
vt 0.583984 0.5

# verts
v -3.5 7 0.5
v -3.5 7 -0.5
v -3.5 8 0.5
v -3.5 8 -0.5
v -2.5 1 1.5
v -2.5 1 -1.5
v -2.5 4 1.5
v -2.5 4 -1.5
v -2.5 7 1.5
v -2.5 7 0.5
v -2.5 7 -0.5
v -2.5 7 -1.5
v -2.5 8 1.5
v -2.5 8 0.5
v -2.5 8 -0.5
v -2.5 8 -1.5
v -1.5 0 1.5
v -1.5 0 -1.5
v -1.5 1 2.5
v -1.5 1 1.5
v -1.5 1 -1.5
v -1.5 1 -2.5
v -1.5 4 2.5
v -1.5 4 1.5
v -1.5 4 -1.5
v -1.5 4 -2.5
v -1.5 5 1.5
v -1.5 5 -1.5
v -1.5 8 2.5
v -1.5 8 1.5
v -1.5 8 0.5
v -1.5 9 2.5
v -1.5 9 0.5
v -1.5 9 -0.5
v -1.5 9 -2.5
v -1.5 10 -0.5
v -1.5 10 -2.5
v -0.5 5 0.5
v -0.5 5 -0.5
v -0.5 6 0.5
v -0.5 6 -0.5
v -0.5 7 0.5
v -0.5 7 -0.5
v -0.5 8 3.5
v -0.5 8 2.5
v -0.5 8 0.5
v -0.5 8 -0.5
v -0.5 9 3.5
v -0.5 9 2.5
v -0.5 9 0.5
v -0.5 9 -0.5
v -0.5 9 -2.5
v -0.5 9 -3.5
v -0.5 10 0.5
v -0.5 10 -0.5
v -0.5 10 -2.5
v -0.5 10 -3.5
v 0.5 6 1.5
v 0.5 6 0.5
v 0.5 6 -0.5
v 0.5 6 -1.5
v 0.5 7 1.5
v 0.5 7 0.5
v 0.5 7 -0.5
v 0.5 7 -1.5
v 1.5 1 1.5
v 1.5 1 -1.5
v 1.5 4 1.5
v 1.5 4 -1.5
v -1.5 1 1.5
v -1.5 1 -1.5
v -1.5 4 1.5
v -1.5 4 -1.5
v -0.5 7 1.5
v -0.5 7 0.5
v -0.5 7 -0.5
v -0.5 7 -1.5
v -0.5 8 1.5
v -0.5 8 0.5
v -0.5 8 -0.5
v -0.5 8 -1.5
v 0.5 5 0.5
v 0.5 5 -0.5
v 0.5 6 0.5
v 0.5 6 -0.5
v 0.5 7 0.5
v 0.5 7 -0.5
v 0.5 8 3.5
v 0.5 8 2.5
v 0.5 8 0.5
v 0.5 9 3.5
v 0.5 9 2.5
v 0.5 9 0.5
v 0.5 9 -0.5
v 0.5 9 -2.5
v 0.5 9 -3.5
v 0.5 10 0.5
v 0.5 10 -0.5
v 0.5 10 -2.5
v 0.5 10 -3.5
v 1.5 0 1.5
v 1.5 0 -1.5
v 1.5 1 2.5
v 1.5 1 1.5
v 1.5 1 -1.5
v 1.5 1 -2.5
v 1.5 4 2.5
v 1.5 4 1.5
v 1.5 4 -1.5
v 1.5 4 -2.5
v 1.5 5 1.5
v 1.5 5 -1.5
v 1.5 8 2.5
v 1.5 8 0.5
v 1.5 9 2.5
v 1.5 9 0.5
v 1.5 9 -0.5
v 1.5 9 -2.5
v 1.5 10 -0.5
v 1.5 10 -2.5
v 2.5 1 1.5
v 2.5 1 -1.5
v 2.5 4 1.5
v 2.5 4 -1.5
v 2.5 6 1.5
v 2.5 6 0.5
v 2.5 6 -0.5
v 2.5 6 -1.5
v 2.5 7 1.5
v 2.5 7 0.5
v 2.5 7 -0.5
v 2.5 7 -1.5
v 3.5 6 0.5
v 3.5 6 -0.5
v 3.5 7 0.5
v 3.5 7 -0.5
v -0.5 8 3.5
v -0.5 9 3.5
v 0.5 8 3.5
v 0.5 9 3.5
v -1.5 1 2.5
v -1.5 4 2.5
v -1.5 8 2.5
v -1.5 9 2.5
v -0.5 8 2.5
v -0.5 9 2.5
v 0.5 8 2.5
v 0.5 9 2.5
v 1.5 1 2.5
v 1.5 4 2.5
v 1.5 8 2.5
v 1.5 9 2.5
v -2.5 1 1.5
v -2.5 4 1.5
v -2.5 7 1.5
v -2.5 8 1.5
v -1.5 0 1.5
v -1.5 1 1.5
v -1.5 4 1.5
v -1.5 5 1.5
v -1.5 8 1.5
v -0.5 7 1.5
v -0.5 8 1.5
v 0.5 6 1.5
v 0.5 7 1.5
v 1.5 0 1.5
v 1.5 1 1.5
v 1.5 4 1.5
v 1.5 5 1.5
v 2.5 1 1.5
v 2.5 4 1.5
v 2.5 6 1.5
v 2.5 7 1.5
v -3.5 7 0.5
v -3.5 8 0.5
v -2.5 7 0.5
v -2.5 8 0.5
v -0.5 5 0.5
v -0.5 6 0.5
v -0.5 7 0.5
v -0.5 8 0.5
v -0.5 9 0.5
v -0.5 10 0.5
v 0.5 5 0.5
v 0.5 6 0.5
v 0.5 7 0.5
v 0.5 8 0.5
v 0.5 9 0.5
v 0.5 10 0.5
v 2.5 6 0.5
v 2.5 7 0.5
v 3.5 6 0.5
v 3.5 7 0.5
v -1.5 9 -0.5
v -1.5 10 -0.5
v -0.5 9 -0.5
v -0.5 10 -0.5
v 0.5 9 -0.5
v 0.5 10 -0.5
v 1.5 9 -0.5
v 1.5 10 -0.5
v -1.5 1 -1.5
v -1.5 4 -1.5
v 1.5 1 -1.5
v 1.5 4 -1.5
v -1.5 1 1.5
v -1.5 4 1.5
v 1.5 1 1.5
v 1.5 4 1.5
v -1.5 8 0.5
v -1.5 9 0.5
v -0.5 8 0.5
v -0.5 9 0.5
v 0.5 8 0.5
v 0.5 9 0.5
v 1.5 8 0.5
v 1.5 9 0.5
v -3.5 7 -0.5
v -3.5 8 -0.5
v -2.5 7 -0.5
v -2.5 8 -0.5
v -0.5 5 -0.5
v -0.5 6 -0.5
v -0.5 7 -0.5
v -0.5 8 -0.5
v -0.5 9 -0.5
v 0.5 5 -0.5
v 0.5 6 -0.5
v 0.5 7 -0.5
v 0.5 9 -0.5
v 2.5 6 -0.5
v 2.5 7 -0.5
v 3.5 6 -0.5
v 3.5 7 -0.5
v -2.5 1 -1.5
v -2.5 4 -1.5
v -2.5 7 -1.5
v -2.5 8 -1.5
v -1.5 0 -1.5
v -1.5 1 -1.5
v -1.5 4 -1.5
v -1.5 5 -1.5
v -0.5 7 -1.5
v -0.5 8 -1.5
v 0.5 6 -1.5
v 0.5 7 -1.5
v 1.5 0 -1.5
v 1.5 1 -1.5
v 1.5 4 -1.5
v 1.5 5 -1.5
v 2.5 1 -1.5
v 2.5 4 -1.5
v 2.5 6 -1.5
v 2.5 7 -1.5
v -1.5 1 -2.5
v -1.5 4 -2.5
v -1.5 9 -2.5
v -1.5 10 -2.5
v -0.5 9 -2.5
v -0.5 10 -2.5
v 0.5 9 -2.5
v 0.5 10 -2.5
v 1.5 1 -2.5
v 1.5 4 -2.5
v 1.5 9 -2.5
v 1.5 10 -2.5
v -0.5 9 -3.5
v -0.5 10 -3.5
v 0.5 9 -3.5
v 0.5 10 -3.5
v -1.5 0 1.5
v 1.5 0 1.5
v -1.5 0 -1.5
v 1.5 0 -1.5
v -1.5 1 2.5
v 1.5 1 2.5
v -2.5 1 1.5
v -1.5 1 1.5
v 1.5 1 1.5
v 2.5 1 1.5
v -2.5 1 -1.5
v -1.5 1 -1.5
v 1.5 1 -1.5
v 2.5 1 -1.5
v -1.5 1 -2.5
v 1.5 1 -2.5
v -1.5 4 1.5
v 1.5 4 1.5
v -0.5 4 0.5
v 0.5 4 0.5
v -0.5 4 -0.5
v 0.5 4 -0.5
v -1.5 4 -1.5
v 1.5 4 -1.5
v 0.5 6 1.5
v 2.5 6 1.5
v 0.5 6 0.5
v 2.5 6 0.5
v 3.5 6 0.5
v 0.5 6 -0.5
v 2.5 6 -0.5
v 3.5 6 -0.5
v 0.5 6 -1.5
v 2.5 6 -1.5
v -2.5 7 1.5
v -0.5 7 1.5
v -3.5 7 0.5
v -2.5 7 0.5
v -0.5 7 0.5
v -3.5 7 -0.5
v -2.5 7 -0.5
v -0.5 7 -0.5
v -2.5 7 -1.5
v -0.5 7 -1.5
v -0.5 8 3.5
v 0.5 8 3.5
v -1.5 8 2.5
v -0.5 8 2.5
v 0.5 8 2.5
v 1.5 8 2.5
v -1.5 8 1.5
v -0.5 8 1.5
v -0.5 8 0.5
v 0.5 8 0.5
v 1.5 8 0.5
v -1.5 9 -0.5
v -0.5 9 -0.5
v 0.5 9 -0.5
v 1.5 9 -0.5
v -1.5 9 -2.5
v -0.5 9 -2.5
v 0.5 9 -2.5
v 1.5 9 -2.5
v -0.5 9 -3.5
v 0.5 9 -3.5
v -1.5 1 1.5
v 1.5 1 1.5
v -1.5 1 -1.5
v 1.5 1 -1.5
v -1.5 4 2.5
v 1.5 4 2.5
v -2.5 4 1.5
v -1.5 4 1.5
v 1.5 4 1.5
v 2.5 4 1.5
v -2.5 4 -1.5
v -1.5 4 -1.5
v 1.5 4 -1.5
v 2.5 4 -1.5
v -1.5 4 -2.5
v 1.5 4 -2.5
v -1.5 5 1.5
v 1.5 5 1.5
v -0.5 5 0.5
v 0.5 5 0.5
v -0.5 5 -0.5
v 0.5 5 -0.5
v -1.5 5 -1.5
v 1.5 5 -1.5
v 0.5 7 1.5
v 2.5 7 1.5
v 0.5 7 0.5
v 2.5 7 0.5
v 3.5 7 0.5
v 0.5 7 -0.5
v 2.5 7 -0.5
v 3.5 7 -0.5
v 0.5 7 -1.5
v 2.5 7 -1.5
v -2.5 8 1.5
v -1.5 8 1.5
v -3.5 8 0.5
v -2.5 8 0.5
v -1.5 8 0.5
v -0.5 8 0.5
v -3.5 8 -0.5
v -2.5 8 -0.5
v -0.5 8 -0.5
v -2.5 8 -1.5
v -0.5 8 -1.5
v -0.5 9 3.5
v 0.5 9 3.5
v -1.5 9 2.5
v -0.5 9 2.5
v 0.5 9 2.5
v 1.5 9 2.5
v -1.5 9 0.5
v -0.5 9 0.5
v 0.5 9 0.5
v 1.5 9 0.5
v -0.5 10 0.5
v 0.5 10 0.5
v -1.5 10 -0.5
v -0.5 10 -0.5
v 0.5 10 -0.5
v 1.5 10 -0.5
v -1.5 10 -2.5
v -0.5 10 -2.5
v 0.5 10 -2.5
v 1.5 10 -2.5
v -0.5 10 -3.5
v 0.5 10 -3.5

# faces
f 3/3/1 2/3/1 1/3/1
f 4/3/1 2/3/1 3/3/1
f 7/2/1 6/2/1 5/2/1
f 8/2/1 6/2/1 7/2/1
f 13/3/1 10/3/1 9/3/1
f 14/3/1 10/3/1 13/3/1
f 15/3/1 12/3/1 11/3/1
f 16/3/1 12/3/1 15/3/1
f 20/2/1 18/2/1 17/2/1
f 21/2/1 18/2/1 20/2/1
f 23/2/1 20/2/1 19/2/1
f 24/2/1 20/2/1 23/2/1
f 25/2/1 22/2/1 21/2/1
f 26/2/1 22/2/1 25/2/1
f 27/2/1 25/2/1 24/2/1
f 28/2/1 25/2/1 27/2/1
f 32/3/1 30/3/1 29/3/1
f 32/3/1 31/3/1 30/3/1
f 33/3/1 31/3/1 32/3/1
f 36/3/1 35/3/1 34/3/1
f 37/3/1 35/3/1 36/3/1
f 40/1/1 39/1/1 38/1/1
f 41/1/1 39/1/1 40/1/1
f 42/3/1 41/3/1 40/3/1
f 43/3/1 41/3/1 42/3/1
f 48/3/1 45/3/1 44/3/1
f 49/3/1 45/3/1 48/3/1
f 50/3/1 47/3/1 46/3/1
f 51/3/1 47/3/1 50/3/1
f 54/3/1 51/3/1 50/3/1
f 55/3/1 51/3/1 54/3/1
f 56/3/1 53/3/1 52/3/1
f 57/3/1 53/3/1 56/3/1
f 62/3/1 59/3/1 58/3/1
f 63/3/1 59/3/1 62/3/1
f 64/3/1 61/3/1 60/3/1
f 65/3/1 61/3/1 64/3/1
f 68/2/1 67/2/1 66/2/1
f 69/2/1 67/2/1 68/2/1
f 70/2/2 71/2/2 72/2/2
f 72/2/2 71/2/2 73/2/2
f 74/3/2 75/3/2 78/3/2
f 78/3/2 75/3/2 79/3/2
f 76/3/2 77/3/2 80/3/2
f 80/3/2 77/3/2 81/3/2
f 82/1/2 83/1/2 84/1/2
f 84/1/2 83/1/2 85/1/2
f 86/3/2 87/3/2 90/3/2
f 88/3/2 89/3/2 91/3/2
f 91/3/2 89/3/2 92/3/2
f 90/3/2 87/3/2 93/3/2
f 93/3/2 87/3/2 94/3/2
f 93/3/2 94/3/2 97/3/2
f 97/3/2 94/3/2 98/3/2
f 95/3/2 96/3/2 99/3/2
f 99/3/2 96/3/2 100/3/2
f 101/2/2 102/2/2 104/2/2
f 104/2/2 102/2/2 105/2/2
f 103/2/2 104/2/2 107/2/2
f 107/2/2 104/2/2 108/2/2
f 105/2/2 106/2/2 109/2/2
f 109/2/2 106/2/2 110/2/2
f 108/2/2 109/2/2 111/2/2
f 111/2/2 109/2/2 112/2/2
f 113/3/2 114/3/2 115/3/2
f 115/3/2 114/3/2 116/3/2
f 117/3/2 118/3/2 119/3/2
f 119/3/2 118/3/2 120/3/2
f 121/2/2 122/2/2 123/2/2
f 123/2/2 122/2/2 124/2/2
f 125/3/2 126/3/2 129/3/2
f 129/3/2 126/3/2 130/3/2
f 127/3/2 128/3/2 131/3/2
f 131/3/2 128/3/2 132/3/2
f 133/3/2 134/3/2 135/3/2
f 135/3/2 134/3/2 136/3/2
f 139/3/3 138/3/3 137/3/3
f 140/3/3 138/3/3 139/3/3
f 145/3/3 144/3/3 143/3/3
f 146/3/3 144/3/3 145/3/3
f 149/2/3 142/2/3 141/2/3
f 150/2/3 142/2/3 149/2/3
f 151/3/3 148/3/3 147/3/3
f 152/3/3 148/3/3 151/3/3
f 158/2/3 154/2/3 153/2/3
f 159/2/3 154/2/3 158/2/3
f 161/3/3 156/3/3 155/3/3
f 162/3/3 161/3/3 155/3/3
f 163/3/3 161/3/3 162/3/3
f 166/2/3 158/2/3 157/2/3
f 167/2/3 158/2/3 166/2/3
f 168/2/3 160/2/3 159/2/3
f 169/2/3 160/2/3 168/2/3
f 170/2/3 168/2/3 167/2/3
f 171/2/3 168/2/3 170/2/3
f 172/3/3 165/3/3 164/3/3
f 173/3/3 165/3/3 172/3/3
f 176/3/3 175/3/3 174/3/3
f 177/3/3 175/3/3 176/3/3
f 184/1/3 179/1/3 178/1/3
f 185/3/3 181/3/3 180/3/3
f 185/1/3 179/1/3 184/1/3
f 185/3/3 180/3/3 179/3/3
f 186/3/3 181/3/3 185/3/3
f 187/3/3 181/3/3 186/3/3
f 188/3/3 183/3/3 182/3/3
f 189/3/3 183/3/3 188/3/3
f 192/3/3 191/3/3 190/3/3
f 193/3/3 191/3/3 192/3/3
f 196/3/3 195/3/3 194/3/3
f 197/3/3 195/3/3 196/3/3
f 200/3/3 199/3/3 198/3/3
f 201/3/3 199/3/3 200/3/3
f 204/2/3 203/2/3 202/2/3
f 205/2/3 203/2/3 204/2/3
f 206/2/4 207/2/4 208/2/4
f 208/2/4 207/2/4 209/2/4
f 210/3/4 211/3/4 212/3/4
f 212/3/4 211/3/4 213/3/4
f 214/3/4 215/3/4 216/3/4
f 216/3/4 215/3/4 217/3/4
f 218/3/4 219/3/4 220/3/4
f 220/3/4 219/3/4 221/3/4
f 222/1/4 223/1/4 227/1/4
f 224/3/4 225/3/4 228/3/4
f 227/1/4 223/1/4 228/1/4
f 225/3/4 226/3/4 228/3/4
f 223/3/4 224/3/4 228/3/4
f 228/3/4 226/3/4 229/3/4
f 229/3/4 226/3/4 230/3/4
f 231/3/4 232/3/4 233/3/4
f 233/3/4 232/3/4 234/3/4
f 235/2/4 236/2/4 240/2/4
f 240/2/4 236/2/4 241/2/4
f 237/3/4 238/3/4 243/3/4
f 243/3/4 238/3/4 244/3/4
f 239/2/4 240/2/4 247/2/4
f 247/2/4 240/2/4 248/2/4
f 241/2/4 242/2/4 249/2/4
f 249/2/4 242/2/4 250/2/4
f 248/2/4 249/2/4 251/2/4
f 251/2/4 249/2/4 252/2/4
f 245/3/4 246/3/4 253/3/4
f 253/3/4 246/3/4 254/3/4
f 257/3/4 258/3/4 259/3/4
f 259/3/4 258/3/4 260/3/4
f 255/2/4 256/2/4 263/2/4
f 263/2/4 256/2/4 264/2/4
f 261/3/4 262/3/4 265/3/4
f 265/3/4 262/3/4 266/3/4
f 267/3/4 268/3/4 269/3/4
f 269/3/4 268/3/4 270/3/4
f 273/2/5 272/2/5 271/2/5
f 274/2/5 272/2/5 273/2/5
f 278/2/5 276/2/5 275/2/5
f 279/2/5 276/2/5 278/2/5
f 281/2/5 278/2/5 277/2/5
f 282/2/5 278/2/5 281/2/5
f 283/2/5 280/2/5 279/2/5
f 284/2/5 280/2/5 283/2/5
f 285/2/5 283/2/5 282/2/5
f 286/2/5 283/2/5 285/2/5
f 289/2/5 288/2/5 287/2/5
f 290/2/5 288/2/5 289/2/5
f 291/2/5 289/2/5 287/2/5
f 291/1/5 290/1/5 289/1/5
f 292/2/5 288/2/5 290/2/5
f 292/1/5 290/1/5 291/1/5
f 293/2/5 291/2/5 287/2/5
f 293/2/5 292/2/5 291/2/5
f 294/2/5 288/2/5 292/2/5
f 294/2/5 292/2/5 293/2/5
f 297/3/5 296/3/5 295/3/5
f 298/3/5 296/3/5 297/3/5
f 300/3/5 298/3/5 297/3/5
f 300/3/5 299/3/5 298/3/5
f 301/3/5 299/3/5 300/3/5
f 302/3/5 299/3/5 301/3/5
f 303/3/5 301/3/5 300/3/5
f 304/3/5 301/3/5 303/3/5
f 308/3/5 306/3/5 305/3/5
f 309/3/5 306/3/5 308/3/5
f 310/3/5 308/3/5 307/3/5
f 310/3/5 309/3/5 308/3/5
f 311/3/5 309/3/5 310/3/5
f 312/3/5 309/3/5 311/3/5
f 313/3/5 312/3/5 311/3/5
f 314/3/5 312/3/5 313/3/5
f 318/3/5 316/3/5 315/3/5
f 319/3/5 316/3/5 318/3/5
f 321/3/5 318/3/5 317/3/5
f 321/3/5 320/3/5 319/3/5
f 321/3/5 319/3/5 318/3/5
f 322/3/5 320/3/5 321/3/5
f 323/3/5 320/3/5 322/3/5
f 324/3/5 320/3/5 323/3/5
f 325/3/5 320/3/5 324/3/5
f 330/3/5 327/3/5 326/3/5
f 330/3/5 329/3/5 328/3/5
f 330/3/5 328/3/5 327/3/5
f 331/3/5 329/3/5 330/3/5
f 332/3/5 329/3/5 331/3/5
f 333/3/5 329/3/5 332/3/5
f 334/3/5 332/3/5 331/3/5
f 335/3/5 332/3/5 334/3/5
f 336/2/6 337/2/6 338/2/6
f 338/2/6 337/2/6 339/2/6
f 340/2/6 341/2/6 343/2/6
f 343/2/6 341/2/6 344/2/6
f 342/2/6 343/2/6 346/2/6
f 346/2/6 343/2/6 347/2/6
f 344/2/6 345/2/6 348/2/6
f 348/2/6 345/2/6 349/2/6
f 347/2/6 348/2/6 350/2/6
f 350/2/6 348/2/6 351/2/6
f 352/2/6 353/2/6 354/2/6
f 354/2/6 353/2/6 355/2/6
f 352/2/6 354/2/6 356/2/6
f 355/2/6 353/2/6 357/2/6
f 352/2/6 356/2/6 358/2/6
f 356/2/6 357/2/6 358/2/6
f 357/2/6 353/2/6 359/2/6
f 358/2/6 357/2/6 359/2/6
f 360/3/6 361/3/6 362/3/6
f 362/3/6 361/3/6 363/3/6
f 362/3/6 363/3/6 365/3/6
f 363/3/6 364/3/6 365/3/6
f 365/3/6 364/3/6 366/3/6
f 366/3/6 364/3/6 367/3/6
f 365/3/6 366/3/6 368/3/6
f 368/3/6 366/3/6 369/3/6
f 370/3/6 371/3/6 373/3/6
f 373/3/6 371/3/6 374/3/6
f 372/3/6 373/3/6 376/3/6
f 374/3/6 375/3/6 376/3/6
f 373/3/6 374/3/6 376/3/6
f 376/3/6 375/3/6 377/3/6
f 377/3/6 375/3/6 378/3/6
f 377/3/6 378/3/6 379/3/6
f 379/3/6 378/3/6 380/3/6
f 381/3/6 382/3/6 384/3/6
f 384/3/6 382/3/6 385/3/6
f 383/3/6 384/3/6 387/3/6
f 385/3/6 386/3/6 387/3/6
f 384/3/6 385/3/6 387/3/6
f 387/3/6 386/3/6 388/3/6
f 388/3/6 386/3/6 389/3/6
f 389/3/6 386/3/6 390/3/6
f 391/3/6 392/3/6 394/3/6
f 394/3/6 392/3/6 395/3/6
f 393/3/6 394/3/6 397/3/6
f 395/3/6 396/3/6 397/3/6
f 394/3/6 395/3/6 397/3/6
f 397/3/6 396/3/6 398/3/6
f 398/3/6 396/3/6 399/3/6
f 399/3/6 396/3/6 400/3/6
f 398/3/6 399/3/6 401/3/6
f 401/3/6 399/3/6 402/3/6
