# MagicaVoxel @ Ephtracy

# group
g Present_V2

# material
mtllib Present_V2.mtl
usemtl palette

# normals
vn -1 0 0
vn 1 0 0
vn 0 0 1
vn 0 0 -1
vn 0 -1 0
vn 0 1 0

# texcoords
vt 0.373047 0.5
vt 0.404297 0.5
vt 0.771484 0.5

# verts
v -1.5 0 1.5
v -1.5 0 0.5
v -1.5 0 -0.5
v -1.5 0 -1.5
v -1.5 1 1.5
v -1.5 1 0.5
v -1.5 1 -0.5
v -1.5 1 -1.5
v -1.5 2 1.5
v -1.5 2 0.5
v -1.5 2 -0.5
v -1.5 2 -1.5
v -1.5 3 1.5
v -1.5 3 0.5
v -1.5 3 -0.5
v -1.5 3 -1.5
v -1.5 4 0.5
v -1.5 4 -0.5
v -0.5 3 1.5
v -0.5 3 0.5
v -0.5 3 -0.5
v -0.5 3 -1.5
v -0.5 4 1.5
v -0.5 4 0.5
v -0.5 4 -0.5
v -0.5 4 -1.5
v 0.5 3 1.5
v 0.5 3 0.5
v 0.5 3 -0.5
v 0.5 3 -1.5
v 0.5 4 1.5
v 0.5 4 0.5
v 0.5 4 -0.5
v 0.5 4 -1.5
v 1.5 0 1.5
v 1.5 0 0.5
v 1.5 0 -0.5
v 1.5 0 -1.5
v 1.5 1 1.5
v 1.5 1 0.5
v 1.5 1 -0.5
v 1.5 1 -1.5
v 1.5 2 1.5
v 1.5 2 0.5
v 1.5 2 -0.5
v 1.5 2 -1.5
v 1.5 3 1.5
v 1.5 3 0.5
v 1.5 3 -0.5
v 1.5 3 -1.5
v 1.5 4 0.5
v 1.5 4 -0.5
v -1.5 0 1.5
v -1.5 1 1.5
v -1.5 2 1.5
v -1.5 3 1.5
v -0.5 0 1.5
v -0.5 1 1.5
v -0.5 2 1.5
v -0.5 3 1.5
v -0.5 4 1.5
v 0.5 0 1.5
v 0.5 1 1.5
v 0.5 2 1.5
v 0.5 3 1.5
v 0.5 4 1.5
v 1.5 0 1.5
v 1.5 1 1.5
v 1.5 2 1.5
v 1.5 3 1.5
v -1.5 3 0.5
v -1.5 4 0.5
v -0.5 3 0.5
v -0.5 4 0.5
v 0.5 3 0.5
v 0.5 4 0.5
v 1.5 3 0.5
v 1.5 4 0.5
v -1.5 3 -0.5
v -1.5 4 -0.5
v -0.5 3 -0.5
v -0.5 4 -0.5
v 0.5 3 -0.5
v 0.5 4 -0.5
v 1.5 3 -0.5
v 1.5 4 -0.5
v -1.5 0 -1.5
v -1.5 1 -1.5
v -1.5 2 -1.5
v -1.5 3 -1.5
v -0.5 0 -1.5
v -0.5 1 -1.5
v -0.5 2 -1.5
v -0.5 3 -1.5
v -0.5 4 -1.5
v 0.5 0 -1.5
v 0.5 1 -1.5
v 0.5 2 -1.5
v 0.5 3 -1.5
v 0.5 4 -1.5
v 1.5 0 -1.5
v 1.5 1 -1.5
v 1.5 2 -1.5
v 1.5 3 -1.5
v -1.5 0 1.5
v -0.5 0 1.5
v 0.5 0 1.5
v 1.5 0 1.5
v -1.5 0 0.5
v -0.5 0 0.5
v 0.5 0 0.5
v 1.5 0 0.5
v -1.5 0 -0.5
v -0.5 0 -0.5
v 0.5 0 -0.5
v 1.5 0 -0.5
v -1.5 0 -1.5
v -0.5 0 -1.5
v 0.5 0 -1.5
v 1.5 0 -1.5
v -1.5 3 1.5
v -0.5 3 1.5
v 0.5 3 1.5
v 1.5 3 1.5
v -1.5 3 0.5
v -0.5 3 0.5
v 0.5 3 0.5
v 1.5 3 0.5
v -1.5 3 -0.5
v -0.5 3 -0.5
v 0.5 3 -0.5
v 1.5 3 -0.5
v -1.5 3 -1.5
v -0.5 3 -1.5
v 0.5 3 -1.5
v 1.5 3 -1.5
v -0.5 4 1.5
v 0.5 4 1.5
v -1.5 4 0.5
v -0.5 4 0.5
v 0.5 4 0.5
v 1.5 4 0.5
v -1.5 4 -0.5
v -0.5 4 -0.5
v 0.5 4 -0.5
v 1.5 4 -0.5
v -0.5 4 -1.5
v 0.5 4 -1.5

# faces
f 5/3/1 2/3/1 1/3/1
f 6/1/1 3/1/1 2/1/1
f 6/3/1 2/3/1 5/3/1
f 7/3/1 4/3/1 3/3/1
f 7/1/1 3/1/1 6/1/1
f 8/3/1 4/3/1 7/3/1
f 9/1/1 6/1/1 5/1/1
f 9/1/1 7/1/1 6/1/1
f 9/1/1 8/1/1 7/1/1
f 10/1/1 8/1/1 9/1/1
f 11/1/1 8/1/1 10/1/1
f 12/1/1 8/1/1 11/1/1
f 13/3/1 10/3/1 9/3/1
f 14/1/1 11/1/1 10/1/1
f 14/3/1 10/3/1 13/3/1
f 15/3/1 12/3/1 11/3/1
f 15/1/1 11/1/1 14/1/1
f 16/3/1 12/3/1 15/3/1
f 17/2/1 15/2/1 14/2/1
f 18/2/1 15/2/1 17/2/1
f 23/2/1 20/2/1 19/2/1
f 24/2/1 20/2/1 23/2/1
f 25/2/1 22/2/1 21/2/1
f 26/2/1 22/2/1 25/2/1
f 27/2/2 28/2/2 31/2/2
f 31/2/2 28/2/2 32/2/2
f 29/2/2 30/2/2 33/2/2
f 33/2/2 30/2/2 34/2/2
f 35/3/2 36/3/2 39/3/2
f 36/1/2 37/1/2 40/1/2
f 39/3/2 36/3/2 40/3/2
f 37/3/2 38/3/2 41/3/2
f 40/1/2 37/1/2 41/1/2
f 41/3/2 38/3/2 42/3/2
f 39/1/2 40/1/2 43/1/2
f 40/1/2 41/1/2 43/1/2
f 41/1/2 42/1/2 43/1/2
f 43/1/2 42/1/2 44/1/2
f 44/1/2 42/1/2 45/1/2
f 45/1/2 42/1/2 46/1/2
f 43/3/2 44/3/2 47/3/2
f 44/1/2 45/1/2 48/1/2
f 47/3/2 44/3/2 48/3/2
f 45/3/2 46/3/2 49/3/2
f 48/1/2 45/1/2 49/1/2
f 49/3/2 46/3/2 50/3/2
f 48/2/2 49/2/2 51/2/2
f 51/2/2 49/2/2 52/2/2
f 57/3/3 54/3/3 53/3/3
f 58/1/3 55/1/3 54/1/3
f 58/3/3 54/3/3 57/3/3
f 59/3/3 56/3/3 55/3/3
f 59/1/3 55/1/3 58/1/3
f 60/3/3 56/3/3 59/3/3
f 62/1/3 58/1/3 57/1/3
f 62/1/3 59/1/3 58/1/3
f 62/1/3 60/1/3 59/1/3
f 63/1/3 60/1/3 62/1/3
f 64/1/3 60/1/3 63/1/3
f 65/2/3 61/2/3 60/2/3
f 65/1/3 60/1/3 64/1/3
f 66/2/3 61/2/3 65/2/3
f 67/3/3 63/3/3 62/3/3
f 68/1/3 64/1/3 63/1/3
f 68/3/3 63/3/3 67/3/3
f 69/3/3 65/3/3 64/3/3
f 69/1/3 64/1/3 68/1/3
f 70/3/3 65/3/3 69/3/3
f 73/2/3 72/2/3 71/2/3
f 74/2/3 72/2/3 73/2/3
f 77/2/3 76/2/3 75/2/3
f 78/2/3 76/2/3 77/2/3
f 79/2/4 80/2/4 81/2/4
f 81/2/4 80/2/4 82/2/4
f 83/2/4 84/2/4 85/2/4
f 85/2/4 84/2/4 86/2/4
f 87/3/4 88/3/4 91/3/4
f 88/1/4 89/1/4 92/1/4
f 91/3/4 88/3/4 92/3/4
f 89/3/4 90/3/4 93/3/4
f 92/1/4 89/1/4 93/1/4
f 93/3/4 90/3/4 94/3/4
f 91/1/4 92/1/4 96/1/4
f 92/1/4 93/1/4 96/1/4
f 93/1/4 94/1/4 96/1/4
f 96/1/4 94/1/4 97/1/4
f 97/1/4 94/1/4 98/1/4
f 94/2/4 95/2/4 99/2/4
f 98/1/4 94/1/4 99/1/4
f 99/2/4 95/2/4 100/2/4
f 96/3/4 97/3/4 101/3/4
f 97/1/4 98/1/4 102/1/4
f 101/3/4 97/3/4 102/3/4
f 98/3/4 99/3/4 103/3/4
f 102/1/4 98/1/4 103/1/4
f 103/3/4 99/3/4 104/3/4
f 109/3/5 106/3/5 105/3/5
f 110/1/5 107/1/5 106/1/5
f 110/3/5 106/3/5 109/3/5
f 111/3/5 108/3/5 107/3/5
f 111/1/5 107/1/5 110/1/5
f 112/3/5 108/3/5 111/3/5
f 113/1/5 110/1/5 109/1/5
f 113/1/5 111/1/5 110/1/5
f 113/1/5 112/1/5 111/1/5
f 114/1/5 112/1/5 113/1/5
f 115/1/5 112/1/5 114/1/5
f 116/1/5 112/1/5 115/1/5
f 117/3/5 114/3/5 113/3/5
f 118/1/5 115/1/5 114/1/5
f 118/3/5 114/3/5 117/3/5
f 119/3/5 116/3/5 115/3/5
f 119/1/5 115/1/5 118/1/5
f 120/3/5 116/3/5 119/3/5
f 121/3/6 122/3/6 125/3/6
f 125/3/6 122/3/6 126/3/6
f 123/3/6 124/3/6 127/3/6
f 127/3/6 124/3/6 128/3/6
f 129/3/6 130/3/6 133/3/6
f 133/3/6 130/3/6 134/3/6
f 131/3/6 132/3/6 135/3/6
f 135/3/6 132/3/6 136/3/6
f 137/2/6 138/2/6 140/2/6
f 140/2/6 138/2/6 141/2/6
f 139/2/6 140/2/6 143/2/6
f 141/2/6 142/2/6 143/2/6
f 140/2/6 141/2/6 143/2/6
f 143/2/6 142/2/6 144/2/6
f 144/2/6 142/2/6 145/2/6
f 145/2/6 142/2/6 146/2/6
f 144/2/6 145/2/6 147/2/6
f 147/2/6 145/2/6 148/2/6
