# MagicaVoxel @ Ephtracy

# group
g Tombstone

# material
mtllib Tombstone.mtl
usemtl palette

# normals
vn -1 0 0
vn 1 0 0
vn 0 0 1
vn 0 0 -1
vn 0 -1 0
vn 0 1 0

# texcoords
vt 0.919922 0.5
vt 0.927734 0.5
vt 0.935547 0.5
vt 0.966797 0.5
vt 0.978516 0.5

# verts
v -5 0 4.5
v -5 0 3.5
v -5 0 -4.5
v -5 1 4.5
v -5 1 3.5
v -5 1 -3.5
v -5 1 -4.5
v -5 2 3.5
v -5 2 2.5
v -5 2 -2.5
v -5 2 -3.5
v -5 5 0.5
v -5 5 -0.5
v -5 8 1.5
v -5 8 0.5
v -5 8 -0.5
v -5 8 -1.5
v -5 9 1.5
v -5 9 0.5
v -5 9 -0.5
v -5 9 -1.5
v -5 10 2.5
v -5 10 1.5
v -5 10 0.5
v -5 10 -0.5
v -5 10 -1.5
v -5 10 -2.5
v -5 11 1.5
v -5 11 -1.5
v -4 2 2.5
v -4 2 1.5
v -4 2 -1.5
v -4 2 -2.5
v -4 3 1.5
v -4 3 -1.5
v -4 5 0.5
v -4 5 -0.5
v -4 8 1.5
v -4 8 0.5
v -4 8 -0.5
v -4 8 -1.5
v -4 9 1.5
v -4 9 0.5
v -4 9 -0.5
v -4 9 -1.5
v -4 10 2.5
v -4 10 1.5
v -4 10 0.5
v -4 10 -0.5
v -4 10 -1.5
v -4 10 -2.5
v -4 11 1.5
v -4 11 -1.5
v -3 2 1.5
v -3 2 -1.5
v -3 3 1.5
v -3 3 -1.5
v -3 5 0.5
v -3 5 -0.5
v -3 8 1.5
v -3 8 0.5
v -3 8 -0.5
v -3 8 -1.5
v -3 9 1.5
v -3 9 0.5
v -3 9 -0.5
v -3 9 -1.5
v -3 10 0.5
v -3 10 -0.5
v 4 1 3.5
v 4 1 -3.5
v 4 2 3.5
v 4 2 -3.5
v 5 0 4.5
v 5 0 3.5
v 5 0 -4.5
v 5 1 4.5
v 5 1 3.5
v 5 1 -4.5
v -5 0 4.5
v -5 1 4.5
v 5 0 4.5
v 5 1 4.5
v -5 1 3.5
v -5 2 3.5
v 4 1 3.5
v 4 2 3.5
v -5 2 2.5
v -5 10 2.5
v -4 2 2.5
v -4 10 2.5
v -5 10 1.5
v -5 11 1.5
v -4 2 1.5
v -4 3 1.5
v -4 8 1.5
v -4 9 1.5
v -4 10 1.5
v -4 11 1.5
v -3 2 1.5
v -3 3 1.5
v -3 8 1.5
v -3 9 1.5
v -4 5 0.5
v -4 8 0.5
v -4 9 0.5
v -4 10 0.5
v -3 5 0.5
v -3 8 0.5
v -3 9 0.5
v -3 10 0.5
v -4 5 -0.5
v -4 8 -0.5
v -4 9 -0.5
v -4 10 -0.5
v -3 5 -0.5
v -3 8 -0.5
v -3 9 -0.5
v -3 10 -0.5
v -5 10 -1.5
v -5 11 -1.5
v -4 2 -1.5
v -4 3 -1.5
v -4 8 -1.5
v -4 9 -1.5
v -4 10 -1.5
v -4 11 -1.5
v -3 2 -1.5
v -3 3 -1.5
v -3 8 -1.5
v -3 9 -1.5
v -5 2 -2.5
v -5 10 -2.5
v -4 2 -2.5
v -4 10 -2.5
v -5 1 -3.5
v -5 2 -3.5
v 4 1 -3.5
v 4 2 -3.5
v -5 0 -4.5
v -5 1 -4.5
v 5 0 -4.5
v 5 1 -4.5
v -5 0 4.5
v 5 0 4.5
v -5 0 3.5
v 5 0 3.5
v -5 0 -4.5
v 5 0 -4.5
v -4 5 0.5
v -3 5 0.5
v -4 5 -0.5
v -3 5 -0.5
v -4 8 1.5
v -3 8 1.5
v -4 8 0.5
v -3 8 0.5
v -4 8 -0.5
v -3 8 -0.5
v -4 8 -1.5
v -3 8 -1.5
v -5 1 4.5
v 5 1 4.5
v -5 1 3.5
v 4 1 3.5
v 5 1 3.5
v -5 1 -3.5
v 4 1 -3.5
v -5 1 -4.5
v 5 1 -4.5
v -5 2 3.5
v 4 2 3.5
v -5 2 2.5
v -4 2 2.5
v -4 2 1.5
v -3 2 1.5
v -4 2 -1.5
v -3 2 -1.5
v -5 2 -2.5
v -4 2 -2.5
v -5 2 -3.5
v 4 2 -3.5
v -4 3 1.5
v -3 3 1.5
v -4 3 -1.5
v -3 3 -1.5
v -4 9 1.5
v -3 9 1.5
v -4 9 0.5
v -3 9 0.5
v -4 9 -0.5
v -3 9 -0.5
v -4 9 -1.5
v -3 9 -1.5
v -5 10 2.5
v -4 10 2.5
v -5 10 1.5
v -4 10 1.5
v -4 10 0.5
v -3 10 0.5
v -4 10 -0.5
v -3 10 -0.5
v -5 10 -1.5
v -4 10 -1.5
v -5 10 -2.5
v -4 10 -2.5
v -5 11 1.5
v -4 11 1.5
v -5 11 -1.5
v -4 11 -1.5

# faces
f 4/4/1 2/4/1 1/4/1
f 5/1/1 3/1/1 2/1/1
f 5/4/1 2/4/1 4/4/1
f 6/1/1 3/1/1 5/1/1
f 7/1/1 3/1/1 6/1/1
f 8/2/1 6/2/1 5/2/1
f 9/2/1 6/2/1 8/2/1
f 10/2/1 6/2/1 9/2/1
f 11/2/1 6/2/1 10/2/1
f 12/1/1 10/1/1 9/1/1
f 13/1/1 10/1/1 12/1/1
f 14/1/1 12/1/1 9/1/1
f 15/3/1 13/3/1 12/3/1
f 15/1/1 12/1/1 14/1/1
f 16/1/1 10/1/1 13/1/1
f 16/3/1 13/3/1 15/3/1
f 17/1/1 10/1/1 16/1/1
f 18/3/1 15/3/1 14/3/1
f 18/1/1 14/1/1 9/1/1
f 18/3/1 17/3/1 16/3/1
f 18/3/1 16/3/1 15/3/1
f 19/3/1 17/3/1 18/3/1
f 20/3/1 17/3/1 19/3/1
f 21/1/1 10/1/1 17/1/1
f 21/3/1 17/3/1 20/3/1
f 22/1/1 18/1/1 9/1/1
f 22/1/1 19/1/1 18/1/1
f 23/1/1 19/1/1 22/1/1
f 24/3/1 20/3/1 19/3/1
f 24/1/1 19/1/1 23/1/1
f 25/1/1 21/1/1 20/1/1
f 25/3/1 20/3/1 24/3/1
f 26/1/1 10/1/1 21/1/1
f 26/1/1 21/1/1 25/1/1
f 27/1/1 10/1/1 26/1/1
f 28/1/1 25/1/1 24/1/1
f 28/1/1 26/1/1 25/1/1
f 28/1/1 24/1/1 23/1/1
f 29/1/1 26/1/1 28/1/1
f 30/1/2 31/1/2 34/1/2
f 32/1/2 33/1/2 35/1/2
f 34/1/2 35/1/2 36/1/2
f 36/1/2 35/1/2 37/1/2
f 30/1/2 34/1/2 38/1/2
f 34/1/2 36/1/2 38/1/2
f 38/1/2 36/1/2 39/1/2
f 37/1/2 35/1/2 40/1/2
f 35/1/2 33/1/2 41/1/2
f 40/1/2 35/1/2 41/1/2
f 30/1/2 38/1/2 42/1/2
f 41/1/2 33/1/2 45/1/2
f 42/1/2 43/1/2 46/1/2
f 30/1/2 42/1/2 46/1/2
f 46/1/2 43/1/2 47/1/2
f 47/1/2 43/1/2 48/1/2
f 44/1/2 45/1/2 49/1/2
f 45/1/2 33/1/2 50/1/2
f 49/1/2 45/1/2 50/1/2
f 50/1/2 33/1/2 51/1/2
f 47/1/2 48/1/2 52/1/2
f 48/1/2 49/1/2 52/1/2
f 49/1/2 50/1/2 52/1/2
f 52/1/2 50/1/2 53/1/2
f 54/5/2 55/5/2 56/5/2
f 56/5/2 55/5/2 57/5/2
f 58/3/2 59/3/2 61/3/2
f 61/3/2 59/3/2 62/3/2
f 60/3/2 61/3/2 64/3/2
f 62/3/2 63/3/2 64/3/2
f 61/3/2 62/3/2 64/3/2
f 64/3/2 63/3/2 65/3/2
f 65/3/2 63/3/2 66/3/2
f 66/3/2 63/3/2 67/3/2
f 65/3/2 66/3/2 68/3/2
f 68/3/2 66/3/2 69/3/2
f 70/2/2 71/2/2 72/2/2
f 72/2/2 71/2/2 73/2/2
f 74/4/2 75/4/2 77/4/2
f 75/1/2 76/1/2 78/1/2
f 77/4/2 75/4/2 78/4/2
f 78/1/2 76/1/2 79/1/2
f 82/4/3 81/4/3 80/4/3
f 83/4/3 81/4/3 82/4/3
f 86/2/3 85/2/3 84/2/3
f 87/2/3 85/2/3 86/2/3
f 90/1/3 89/1/3 88/1/3
f 91/1/3 89/1/3 90/1/3
f 98/1/3 93/1/3 92/1/3
f 99/1/3 93/1/3 98/1/3
f 100/5/3 95/5/3 94/5/3
f 101/5/3 95/5/3 100/5/3
f 102/3/3 97/3/3 96/3/3
f 103/3/3 97/3/3 102/3/3
f 108/3/3 105/3/3 104/3/3
f 109/3/3 105/3/3 108/3/3
f 110/3/3 107/3/3 106/3/3
f 111/3/3 107/3/3 110/3/3
f 112/3/4 113/3/4 116/3/4
f 116/3/4 113/3/4 117/3/4
f 114/3/4 115/3/4 118/3/4
f 118/3/4 115/3/4 119/3/4
f 120/1/4 121/1/4 126/1/4
f 126/1/4 121/1/4 127/1/4
f 122/5/4 123/5/4 128/5/4
f 128/5/4 123/5/4 129/5/4
f 124/3/4 125/3/4 130/3/4
f 130/3/4 125/3/4 131/3/4
f 132/1/4 133/1/4 134/1/4
f 134/1/4 133/1/4 135/1/4
f 136/2/4 137/2/4 138/2/4
f 138/2/4 137/2/4 139/2/4
f 140/1/4 141/1/4 142/1/4
f 142/1/4 141/1/4 143/1/4
f 146/4/5 145/4/5 144/4/5
f 147/4/5 145/4/5 146/4/5
f 148/1/5 147/1/5 146/1/5
f 149/1/5 147/1/5 148/1/5
f 152/3/5 151/3/5 150/3/5
f 153/3/5 151/3/5 152/3/5
f 156/3/5 155/3/5 154/3/5
f 157/3/5 155/3/5 156/3/5
f 160/3/5 159/3/5 158/3/5
f 161/3/5 159/3/5 160/3/5
f 162/4/6 163/4/6 164/4/6
f 164/4/6 163/4/6 165/4/6
f 165/4/6 163/4/6 166/4/6
f 165/1/6 166/1/6 168/1/6
f 167/1/6 168/1/6 169/1/6
f 168/1/6 166/1/6 170/1/6
f 169/1/6 168/1/6 170/1/6
f 171/2/6 172/2/6 173/2/6
f 173/2/6 172/2/6 174/2/6
f 174/2/6 172/2/6 175/2/6
f 175/2/6 172/2/6 176/2/6
f 176/2/6 172/2/6 178/2/6
f 177/2/6 178/2/6 180/2/6
f 179/2/6 180/2/6 181/2/6
f 178/2/6 172/2/6 182/2/6
f 181/2/6 180/2/6 182/2/6
f 180/2/6 178/2/6 182/2/6
f 183/5/6 184/5/6 185/5/6
f 185/5/6 184/5/6 186/5/6
f 187/3/6 188/3/6 189/3/6
f 189/3/6 188/3/6 190/3/6
f 191/3/6 192/3/6 193/3/6
f 193/3/6 192/3/6 194/3/6
f 195/1/6 196/1/6 197/1/6
f 197/1/6 196/1/6 198/1/6
f 199/3/6 200/3/6 201/3/6
f 201/3/6 200/3/6 202/3/6
f 203/1/6 204/1/6 205/1/6
f 205/1/6 204/1/6 206/1/6
f 207/1/6 208/1/6 209/1/6
f 209/1/6 208/1/6 210/1/6
